<svg width="2000" height="2000" viewBox="0 0 2000 2000" fill="none" xmlns="http://www.w3.org/2000/svg">
<path d="M734.7 1805.6C734.7 1817.9 639.7 1828 523.5 1828C407.3 1828 312.4 1818.5 312.4 1806.2C312.4 1793.9 407.4 1783.7 523.5 1783.7C639.6 1783.7 734.7 1793.4 734.7 1805.6Z" fill="#292131"/>
<path d="M523.499 1820.3C639.644 1820.3 733.799 1810.41 733.799 1798.2C733.799 1785.99 639.644 1776.1 523.499 1776.1C407.353 1776.1 313.199 1785.99 313.199 1798.2C313.199 1810.41 407.353 1820.3 523.499 1820.3Z" fill="#FBF4F5"/>
<path d="M523.499 1821.4C467.299 1821.4 414.499 1819.1 374.699 1814.9C333.199 1810.5 312.199 1804.9 312.199 1798.2C312.199 1791.5 333.199 1786 374.699 1781.6C414.499 1777.4 467.299 1775.1 523.499 1775.1C579.699 1775.1 632.599 1777.4 672.299 1781.6C713.799 1786 734.799 1791.6 734.799 1798.2C734.799 1804.8 713.799 1810.5 672.299 1814.9C632.599 1819.1 579.699 1821.4 523.499 1821.4ZM523.499 1777.1C467.399 1777.1 414.599 1779.4 374.899 1783.6C330.099 1788.3 314.199 1794.2 314.199 1798.2C314.199 1802.2 330.099 1808.2 374.899 1812.9C414.599 1817.1 467.399 1819.4 523.499 1819.4C579.599 1819.4 632.399 1817.1 672.099 1812.9C716.899 1808.2 732.799 1802.2 732.799 1798.2C732.799 1794.2 716.899 1788.3 672.099 1783.6C632.399 1779.4 579.699 1777.1 523.499 1777.1Z" fill="#292131"/>
<path d="M734.9 1798.5L734.7 1805.6L716 1810.7L734.9 1798.5Z" fill="#292131"/>
<path d="M312.199 1798.2L312.399 1806.2L330.599 1810L312.199 1798.2Z" fill="#292131"/>
<path d="M812.699 1100.9C797.999 1115.6 810.299 1098.8 809.999 1091.1C808.899 1064.2 801.399 1069.7 801.399 1069.7C800.321 1073.32 799.617 1077.04 799.299 1080.8C799.199 1085.5 797.799 1085.7 796.699 1084.7C795.599 1083.7 777.799 1049.2 774.499 1030.6C773.799 1026.7 770.099 1016.5 764.699 1002.2C766.299 934.6 754.399 893.5 744.599 857.9C736.699 829.5 720.499 791.1 704.999 757.5C704.599 693.7 676.599 592.4 671.599 594.7C666.599 597 664.999 626.9 666.699 654.7L668.299 682.5C668.299 682.5 686.099 716.4 704.999 757.5C705.099 770 704.899 781.8 704.299 792C701.199 840.9 744.499 949.3 764.699 1002.2C763.399 1054.7 754.099 1123.2 729.299 1217.5C729.299 1217.5 723.899 1246.4 723.899 1264.4C723.899 1282.4 722.199 1535.7 691.199 1597.8C660.199 1659.9 682.999 1748.2 679.699 1787.5C676.399 1826.8 634.799 1807.1 636.399 1782.6C637.999 1758.1 642.099 1702.5 642.099 1676.3V1246.4C642.099 1120.5 621.699 1019.1 611.599 949.4C601.199 877.3 600.399 862.7 601.199 877.3C601.999 891.9 604.499 1073.1 596.399 1110.7C588.299 1148.3 559.899 1312.3 544.099 1337.9C525.099 1368.5 524.799 1374 522.799 1388.6C516.199 1437.6 437.799 1664.9 431.299 1684.5C424.799 1704.1 427.999 1730.3 419.799 1749.9C413.399 1765.2 391.599 1787.5 382.299 1796.5C378.999 1799.8 373.199 1798.9 371.399 1794.6C363.899 1776.9 394.199 1729.2 402.699 1686.9C412.499 1637.9 409.999 1472 436.199 1400.1C462.399 1328.2 439.399 1262.7 463.999 1151.6C488.599 1040.5 443.399 899.1 490.099 689C493.399 674.3 460.699 595.8 460.699 595.8C442.699 612.2 444.299 757.6 445.999 769.1C447.699 780.6 426.399 1027.4 431.299 1035.5C436.199 1043.6 455.199 1074 458.299 1077.7C461.399 1081.4 468.699 1087.8 461.799 1087C454.899 1086.2 453.599 1076.9 451.399 1079.9C449.199 1082.9 458.099 1106.7 463.399 1109.3C468.699 1111.9 468.899 1114.7 466.699 1115.5C464.499 1116.3 434.399 1113.6 418.699 1062.1C402.999 1010.6 360.999 930.1 378.099 810C395.199 689.9 396.899 541.9 396.899 541.9C396.899 541.9 400.199 497.7 441.099 502.6C481.999 507.5 560.999 477.7 562.499 477.2C574.099 471.4 567.799 436.5 567.599 435.8C563.799 431.3 560.599 424.5 558.199 416.9C557.066 417.532 555.795 417.876 554.499 417.9C553.366 418.027 552.22 417.913 551.134 417.566C550.049 417.219 549.049 416.647 548.2 415.887C547.35 415.127 546.671 414.197 546.206 413.157C545.741 412.116 545.5 410.99 545.5 409.85C545.5 408.711 545.741 407.584 546.206 406.544C546.671 405.503 547.35 404.573 548.2 403.813C549.049 403.054 550.049 402.482 551.134 402.135C552.22 401.788 553.366 401.674 554.499 401.8H554.999C553.799 391.3 554.499 380.6 557.999 372.3C567.299 349.8 588.399 350.6 588.399 350.6C588.399 350.6 620.499 350.4 618.999 396.4C618.899 398.5 618.799 400.5 618.599 402.4H618.999C620.131 402.274 621.278 402.388 622.363 402.735C623.449 403.082 624.449 403.654 625.298 404.413C626.147 405.173 626.827 406.103 627.292 407.144C627.757 408.184 627.997 409.311 627.997 410.45C627.997 411.59 627.757 412.716 627.292 413.757C626.827 414.797 626.147 415.727 625.298 416.487C624.449 417.247 623.449 417.819 622.363 418.166C621.278 418.513 620.131 418.627 618.999 418.5C617.898 418.469 616.812 418.232 615.799 417.8C613.099 426.5 609.199 432.7 604.499 436.8C597.599 457.5 604.799 482.2 604.799 482.2C604.799 482.2 673.699 534.3 697.199 532.2C720.699 530.1 743.499 551.2 742.399 567.6C741.299 584 763.699 788.3 771.299 801.9C778.899 815.5 796.899 1013.3 801.799 1021.5C801.799 1021.4 827.399 1086.2 812.699 1100.9Z" fill="#E9E7D4"/>
<path d="M764.701 1002.2C744.501 949.3 701.201 840.9 704.301 792C704.901 781.8 705.101 770 705.001 757.5C720.501 791.1 736.701 829.5 744.601 857.9C754.401 893.5 766.301 934.6 764.701 1002.2Z" fill="#E9E7D4"/>
<path d="M702 716.8C702 716.8 728 772 743.5 858.7C743.5 858.7 710.8 763.9 704.8 749.6L702 716.8Z" fill="#292131"/>
<path d="M671.6 1145.7L740.1 1173.9L743.4 1159.4L671.6 1145.7Z" fill="#292131"/>
<path d="M472.1 1067.4L591 1137.7L594.1 1121.6C594.1 1121.6 497.5 1083.8 472.1 1067.4Z" fill="#292131"/>
<path d="M488.401 673.9C488.401 673.9 578.401 723.3 668.301 682.5C668.301 682.5 810.501 886 749.001 1159.9C749.001 1159.9 635.601 1152.9 472.101 1067.4C472.101 1067.4 447.501 773.6 488.401 673.9Z" fill="#7F44D6"/>
<path d="M561.799 1109.5C561.578 1109.51 561.361 1109.45 561.18 1109.32C560.999 1109.19 560.865 1109.01 560.799 1108.8C554.699 1087.5 554.699 1067.3 554.799 1046C554.799 1040.3 554.799 1034.5 554.699 1028.6C553.899 981.8 547.799 945.2 535.699 913.2C520.299 872.8 496.099 841.7 465.399 823.2C465.286 823.129 465.188 823.036 465.112 822.927C465.036 822.817 464.982 822.694 464.954 822.563C464.926 822.433 464.924 822.298 464.949 822.167C464.974 822.036 465.025 821.911 465.099 821.8C465.241 821.599 465.452 821.457 465.692 821.402C465.931 821.346 466.183 821.381 466.399 821.5C497.499 840.2 522.099 871.7 537.499 912.5C549.799 944.7 555.799 981.6 556.699 1028.5C556.799 1034.5 556.799 1040.3 556.799 1046C556.699 1067.2 556.699 1087.2 562.699 1108.2C562.747 1108.32 562.769 1108.46 562.764 1108.59C562.76 1108.72 562.729 1108.86 562.673 1108.98C562.617 1109.1 562.537 1109.21 562.439 1109.3C562.34 1109.39 562.225 1109.46 562.099 1109.5H561.799Z" fill="#FFE500"/>
<path d="M711.1 947.9C706.86 947.914 702.644 947.273 698.6 946C693.6 944.5 689.9 942.3 687.5 939.3C683.6 934.7 682.9 928.5 682.5 922.1C680.9 895.629 680.7 869.092 681.9 842.6V842.2C682.2 836.1 682.5 829.7 680.6 823.9C678.7 818.1 674.2 813 667.9 812.5C666.632 812.435 665.362 812.468 664.1 812.6C662.006 812.934 659.868 812.866 657.8 812.4C651.5 810.6 649.2 803.2 648.4 797.3C643.7 761 660.4 724.8 673.8 695.7C673.928 695.457 674.143 695.271 674.403 695.178C674.662 695.085 674.946 695.093 675.2 695.2C675.436 695.309 675.62 695.506 675.713 695.749C675.807 695.992 675.802 696.261 675.7 696.5C662.3 725.4 645.8 761.3 650.4 797C651.1 802.3 653.1 809 658.4 810.5C660.209 810.872 662.068 810.94 663.9 810.7C665.289 810.484 666.697 810.417 668.1 810.5C675.2 811.1 680.5 817.4 682.5 823.3C684.5 829.2 684.2 836 683.9 842.3V842.7C682.699 869.092 682.9 895.529 684.5 921.9C684.9 928 685.5 933.9 689 938.1C691.2 940.7 694.5 942.7 699.2 944.1C704.695 945.781 710.483 946.284 716.187 945.577C721.89 944.871 727.38 942.971 732.3 940C739.9 935.5 749.7 926.3 753.3 908C753.37 907.745 753.53 907.523 753.75 907.376C753.971 907.229 754.237 907.167 754.5 907.2C754.632 907.224 754.759 907.274 754.871 907.348C754.984 907.422 755.081 907.518 755.155 907.63C755.23 907.742 755.281 907.868 755.306 908C755.331 908.133 755.329 908.269 755.3 908.4C751.5 927.4 741.2 937 733.3 941.8C726.584 945.795 718.914 947.903 711.1 947.9Z" fill="#FFE500"/>
<path d="M715.501 974.9C710.685 974.862 705.876 974.528 701.101 973.9C680.301 970.9 661.001 961.7 646.801 947.8C632.601 933.9 623.001 916.1 613.801 898.8L575.601 827.4C564.301 806.4 552.701 784.6 535.801 767.3C516.801 747.8 494.601 737.6 473.401 738.6C473.261 738.614 473.12 738.599 472.987 738.555C472.854 738.511 472.732 738.439 472.628 738.345C472.524 738.251 472.442 738.136 472.385 738.007C472.329 737.879 472.3 737.74 472.301 737.6C472.301 737.335 472.406 737.081 472.594 736.893C472.781 736.706 473.036 736.6 473.301 736.6C495.101 735.6 517.801 745.9 537.201 765.9C554.401 783.4 566.001 805.3 577.401 826.4L615.601 897.9C624.701 915 634.101 932.6 648.201 946.4C662.301 960.2 681.001 969 701.401 971.9C721.801 974.8 742.501 971.3 759.601 962.2C759.71 962.132 759.833 962.088 759.961 962.071C760.089 962.054 760.219 962.065 760.342 962.103C760.465 962.141 760.579 962.205 760.675 962.291C760.772 962.377 760.849 962.482 760.901 962.6C760.971 962.717 761.016 962.848 761.033 962.983C761.051 963.118 761.041 963.255 761.003 963.387C760.966 963.518 760.902 963.64 760.815 963.745C760.729 963.851 760.622 963.938 760.501 964C746.608 971.232 731.163 974.973 715.501 974.9Z" fill="#FFE500"/>
<path d="M599.5 751.3C592.9 751.3 586.1 749.3 579.6 747.1C545.346 735.612 511.847 721.985 479.3 706.3C479.179 706.238 479.072 706.151 478.986 706.045C478.899 705.94 478.835 705.818 478.798 705.687C478.76 705.555 478.75 705.418 478.768 705.283C478.785 705.148 478.83 705.017 478.9 704.9C478.952 704.782 479.029 704.677 479.125 704.591C479.222 704.505 479.335 704.441 479.459 704.403C479.582 704.365 479.712 704.354 479.84 704.371C479.968 704.388 480.091 704.432 480.2 704.5C512.646 720.152 546.046 733.745 580.2 745.2C589.4 748.2 599 751 607.7 748C616.4 745 622.3 736.6 626 730.6C632.998 719.012 637.905 706.286 640.5 693C640.57 692.745 640.73 692.523 640.951 692.376C641.171 692.229 641.437 692.167 641.7 692.2C641.833 692.224 641.959 692.274 642.072 692.348C642.184 692.422 642.281 692.518 642.356 692.63C642.43 692.742 642.482 692.868 642.507 693C642.531 693.133 642.529 693.269 642.5 693.4C639.802 706.891 634.796 719.814 627.7 731.6C623.9 737.9 617.7 746.7 608.3 749.9C605.468 750.866 602.492 751.339 599.5 751.3Z" fill="#FFE500"/>
<path d="M574.2 1114.8L573.7 1114.6C573.587 1114.53 573.489 1114.44 573.413 1114.33C573.336 1114.22 573.283 1114.09 573.255 1113.96C573.227 1113.83 573.225 1113.7 573.25 1113.57C573.275 1113.44 573.326 1113.31 573.4 1113.2C587.714 1090.35 604.262 1068.98 622.8 1049.4C649.2 1020.9 666.5 1015.9 678.7 1014.8C681.275 1014.34 683.932 1014.69 686.3 1015.8C691.4 1018.7 691.4 1025.6 691 1030.6L687.5 1074.7C687.2 1079.3 687 1083.3 688.9 1086.6C693.5 1094.6 705.9 1092.4 715.1 1088.1C725.898 1083.06 736.354 1077.31 746.4 1070.9C748.3 1069.6 753.3 1067 757.4 1068.8C761.5 1070.6 762.1 1073.2 762.8 1078C762.829 1078.13 762.831 1078.27 762.806 1078.4C762.781 1078.53 762.73 1078.66 762.655 1078.77C762.581 1078.88 762.484 1078.98 762.371 1079.05C762.259 1079.13 762.132 1079.18 762 1079.2C761.723 1079.23 761.445 1079.15 761.223 1078.99C761 1078.82 760.849 1078.57 760.8 1078.3C760.2 1074.2 758.8 1071.6 756.6 1070.7C754.4 1069.8 748.8 1071.7 747.5 1072.6C737.365 1079.07 726.808 1084.85 715.9 1089.9C705.9 1094.6 692.4 1096.8 687.2 1087.6C684.8 1083.5 685.2 1078.6 685.5 1074.6L689 1030.5C689.4 1026 689.4 1019.8 685.3 1017.5C683.285 1016.63 681.066 1016.36 678.9 1016.7C656.4 1018.9 637.9 1036 624.2 1050.7C605.841 1070.29 589.4 1091.58 575.1 1114.3C574.996 1114.45 574.862 1114.57 574.706 1114.65C574.55 1114.74 574.377 1114.79 574.2 1114.8Z" fill="#FFE500"/>
<path d="M567.6 435.8C567.6 435.8 578.8 449.4 593.7 440L569.4 460.7C569.4 460.7 568.9 441.6 567.6 435.8Z" fill="#292131"/>
<path d="M522.599 1092.6H522.299C522.049 1092.53 521.837 1092.37 521.706 1092.14C521.576 1091.92 521.537 1091.65 521.599 1091.4C523.699 1083.9 522.099 1076 517.099 1069.1C514.399 1065.4 510.599 1062.3 506.999 1059.4C504.999 1057.8 502.899 1056 500.899 1054.2C491.099 1044.9 484.599 1031.3 482.599 1015.7C480.899 1003.2 481.899 989.6 485.599 972.9C486.199 970.1 486.899 967.2 487.599 964.4C490.499 952.3 493.499 939.8 492.099 927.4C490.399 912.7 479.699 897 464.699 896.3C464.434 896.3 464.179 896.195 463.992 896.007C463.804 895.82 463.699 895.565 463.699 895.3C463.698 895.16 463.727 895.021 463.783 894.893C463.84 894.765 463.922 894.65 464.026 894.555C464.13 894.461 464.252 894.39 464.385 894.346C464.518 894.302 464.659 894.286 464.799 894.3C480.799 895.1 492.299 911.6 494.099 927.2C495.599 939.9 492.499 952.6 489.499 964.9C488.899 967.7 488.199 970.5 487.599 973.3C483.899 989.8 482.899 1003.2 484.599 1015.4C486.599 1030.6 492.799 1043.8 502.299 1052.7C504.199 1054.5 506.299 1056.2 508.299 1057.9C511.999 1060.9 515.799 1064 518.699 1067.9C524.099 1075.3 525.799 1083.8 523.499 1091.9C523.453 1092.1 523.338 1092.28 523.174 1092.41C523.01 1092.54 522.806 1092.61 522.599 1092.6Z" fill="#FFE500"/>
<path d="M584.399 573.3C527.299 573.3 485.399 554.7 484.799 554.5L484.399 554.3L463.799 502.8C463.697 502.561 463.692 502.292 463.785 502.049C463.879 501.806 464.063 501.609 464.299 501.5C464.538 501.398 464.808 501.393 465.05 501.487C465.293 501.58 465.49 501.764 465.599 502L485.999 552.8C491.799 555.3 564.599 585.4 647.899 563.1L667.099 522.4C667.225 522.18 667.423 522.009 667.66 521.918C667.897 521.827 668.158 521.821 668.399 521.9C668.899 522.2 669.199 522.7 668.899 523.2L649.299 564.8H648.899C627.867 570.459 606.179 573.317 584.399 573.3Z" fill="#FFE500"/>
<path d="M648.599 563.9C690.199 589.3 665.899 629.3 665.899 629.3C556.399 670.2 471.699 623.5 471.699 623.5C471.699 623.5 438.599 582 485.199 553.6L648.599 563.9Z" fill="#7F44D6"/>
<path d="M563.501 647.2C563.295 647.204 563.092 647.15 562.915 647.044C562.738 646.938 562.595 646.784 562.501 646.6C560.101 640.1 554.001 634.7 544.201 630.6L537.801 628C531.901 625.8 525.701 623.4 520.601 619.5C515.501 615.6 511.701 609.2 514.601 603.6C516.501 600.2 520.301 598.6 523.601 597.2L524.601 596.8C528.611 595.087 532.404 592.906 535.901 590.3C538.401 588.5 540.901 585.5 539.501 583.1C538.101 580.7 537.201 581.1 535.501 580.6C513.746 573.374 490.711 570.819 467.901 573.1C467.769 573.114 467.637 573.102 467.51 573.064C467.383 573.026 467.265 572.963 467.163 572.88C467.061 572.796 466.976 572.693 466.914 572.576C466.852 572.46 466.813 572.332 466.801 572.2C466.814 571.945 466.909 571.701 467.07 571.503C467.232 571.305 467.453 571.164 467.701 571.1C490.814 568.81 514.151 571.4 536.201 578.7C538.101 579.3 540.201 580.2 541.301 582.1C543.201 585.6 540.401 589.5 537.101 592C533.48 594.662 529.552 596.878 525.401 598.6L524.401 599.1C521.201 600.4 517.901 601.8 516.401 604.6C514.901 607.4 517.401 614.6 521.801 617.9C526.201 621.2 532.701 624 538.501 626.2L544.901 628.7C555.301 633.1 561.801 638.9 564.401 645.9C564.449 646.025 564.471 646.158 564.466 646.291C564.462 646.424 564.431 646.556 564.375 646.677C564.319 646.798 564.239 646.907 564.141 646.997C564.042 647.086 563.927 647.156 563.801 647.2H563.501Z" fill="#FFE500"/>
<path d="M647.001 597.1C639.501 596.949 632.034 596.078 624.701 594.5C614.701 592.5 604.201 589.9 595.101 584.6C586.001 579.3 578.101 569.7 576.201 560.2C576.155 560.076 576.137 559.942 576.148 559.81C576.16 559.678 576.201 559.55 576.268 559.435C576.335 559.32 576.426 559.222 576.535 559.147C576.645 559.071 576.77 559.021 576.901 559C577.032 558.971 577.168 558.969 577.301 558.994C577.433 559.019 577.559 559.07 577.671 559.145C577.783 559.219 577.879 559.316 577.953 559.429C578.027 559.541 578.077 559.668 578.101 559.8C580.001 568.8 586.501 577.2 596.101 582.8C605.701 588.4 615.301 590.6 625.101 592.5C639.601 595.4 656.201 597.3 669.501 590C669.618 589.93 669.748 589.885 669.883 589.868C670.019 589.85 670.156 589.86 670.287 589.898C670.418 589.935 670.54 589.999 670.646 590.086C670.751 590.172 670.838 590.279 670.901 590.4C670.969 590.51 671.013 590.632 671.03 590.76C671.046 590.888 671.035 591.018 670.997 591.141C670.96 591.265 670.896 591.378 670.81 591.475C670.724 591.571 670.619 591.648 670.501 591.7C663.301 595.7 655.201 597.1 647.001 597.1Z" fill="#FFE500"/>
<path d="M622.701 642C622.517 641.971 622.341 641.902 622.186 641.798C622.03 641.695 621.899 641.559 621.801 641.4C618.701 634.8 613.501 629.1 609.001 624L594.101 607.8C588.901 602.1 582.901 595.6 576.301 590.2C569.701 584.8 563.101 580.8 556.401 576.7C547.301 571 538.001 565.2 530.301 557.5C530.186 557.414 530.091 557.305 530.023 557.179C529.954 557.053 529.914 556.914 529.903 556.771C529.893 556.628 529.914 556.485 529.964 556.351C530.014 556.216 530.092 556.094 530.194 555.993C530.295 555.892 530.417 555.813 530.551 555.763C530.685 555.713 530.829 555.693 530.972 555.703C531.115 555.713 531.254 555.754 531.38 555.822C531.505 555.891 531.615 555.986 531.701 556.1C539.201 563.6 548.501 569.4 557.501 575C564.301 579.2 571.301 583.5 577.501 588.6C583.701 593.7 590.301 600.7 595.601 606.4C600.901 612.1 605.601 617.3 610.401 622.7C615.201 628.1 620.401 633.6 623.701 640.5C623.808 640.754 623.816 641.038 623.723 641.297C623.631 641.557 623.444 641.772 623.201 641.9L622.701 642Z" fill="#FFE500"/>
<path d="M666.899 641.3H647.199V677.73H666.899V641.3Z" fill="#FFE500"/>
<path d="M658.8 645.5C658.569 645.481 658.354 645.374 658.2 645.2C658.003 645.027 657.882 644.783 657.863 644.521C657.844 644.259 657.929 644 658.1 643.8C661.7 639.4 663.2 635.5 662.3 632.2C661.4 628.9 656.1 625.5 656.1 625.5C655.975 625.454 655.861 625.384 655.763 625.294C655.665 625.204 655.586 625.095 655.531 624.974C655.475 624.854 655.444 624.723 655.438 624.59C655.433 624.458 655.454 624.325 655.5 624.2C655.546 624.075 655.616 623.961 655.706 623.863C655.796 623.766 655.905 623.687 656.026 623.631C656.146 623.575 656.277 623.544 656.41 623.539C656.543 623.533 656.675 623.554 656.8 623.6C657.1 623.7 662.9 626.1 664.3 631.7C665.3 635.7 663.7 640.2 659.6 645.1C659.395 645.332 659.108 645.475 658.8 645.5Z" fill="#292131"/>
<path d="M654.499 641.3L653.799 641.1C653.699 641 651.699 639.2 651.999 634.9C652.024 634.653 652.14 634.423 652.325 634.257C652.51 634.091 652.75 633.999 652.999 634C653.139 634 653.278 634.028 653.406 634.085C653.534 634.141 653.65 634.224 653.744 634.328C653.838 634.431 653.91 634.554 653.954 634.687C653.997 634.82 654.013 634.961 653.999 635.1C653.699 638.2 655.099 639.5 655.099 639.5C655.267 639.626 655.391 639.802 655.453 640.002C655.516 640.202 655.514 640.417 655.448 640.616C655.381 640.816 655.254 640.989 655.084 641.111C654.913 641.234 654.709 641.3 654.499 641.3Z" fill="#292131"/>
<path d="M663 674.1C662.735 674.1 662.48 673.995 662.293 673.807C662.105 673.62 662 673.365 662 673.1V652.8C661.984 652.665 661.999 652.528 662.043 652.399C662.088 652.271 662.161 652.154 662.257 652.058C662.354 651.961 662.47 651.888 662.599 651.843C662.728 651.799 662.865 651.784 663 651.8C663.265 651.8 663.52 651.906 663.707 652.093C663.895 652.281 664 652.535 664 652.8V673.1C663.977 673.358 663.865 673.599 663.682 673.782C663.499 673.965 663.258 674.078 663 674.1Z" fill="#292131"/>
<path d="M652.199 674.1C651.941 674.078 651.7 673.965 651.517 673.782C651.334 673.599 651.221 673.358 651.199 673.1V663.3C651.199 663.035 651.304 662.781 651.492 662.593C651.679 662.406 651.933 662.3 652.199 662.3C652.334 662.284 652.471 662.299 652.6 662.343C652.728 662.388 652.845 662.461 652.941 662.558C653.038 662.654 653.111 662.771 653.155 662.899C653.2 663.028 653.215 663.165 653.199 663.3V673.1C653.199 673.365 653.093 673.62 652.906 673.807C652.718 673.995 652.464 674.1 652.199 674.1Z" fill="#292131"/>
<path d="M883.8 1829H99.4004C99.1352 1829 98.8808 1828.89 98.6933 1828.71C98.5058 1828.52 98.4004 1828.27 98.4004 1828C98.4229 1827.74 98.5355 1827.5 98.7184 1827.32C98.9013 1827.14 99.1428 1827.02 99.4004 1827H883.8C884.065 1827 884.32 1827.11 884.508 1827.29C884.695 1827.48 884.8 1827.74 884.8 1828C884.816 1828.14 884.802 1828.27 884.758 1828.4C884.713 1828.53 884.64 1828.65 884.544 1828.74C884.447 1828.84 884.329 1828.91 884.201 1828.96C884.072 1829 883.935 1829.02 883.8 1829Z" fill="#292131"/>
<path d="M561.8 1912.7H481.9C481.635 1912.7 481.38 1912.59 481.193 1912.41C481.005 1912.22 480.9 1911.97 480.9 1911.7C480.9 1911.43 481.005 1911.18 481.193 1910.99C481.38 1910.81 481.635 1910.7 481.9 1910.7H561.8C562.065 1910.7 562.319 1910.81 562.507 1910.99C562.695 1911.18 562.8 1911.43 562.8 1911.7C562.8 1911.97 562.695 1912.22 562.507 1912.41C562.319 1912.59 562.065 1912.7 561.8 1912.7Z" fill="#292131"/>
<path d="M1250.5 420.5C1247.11 420.863 1243.86 422.01 1241 423.85C1238.13 425.69 1235.74 428.172 1234 431.1C1229.06 439.396 1224.56 447.941 1220.5 456.7C1215.6 468 1215.2 468.8 1215.2 468.8L1218.8 469.8C1218.8 469.8 1218.2 491.3 1229.7 491.3H1241.3L1248 531.7C1248 531.7 1288 526.3 1296.7 516.4C1296.7 516.4 1274.8 501.9 1272.3 486.4C1269.8 470.9 1280.4 449.3 1273.6 437.9C1268.3 429.2 1262.7 419.5 1250.5 420.5Z" fill="#FBF4F5"/>
<path d="M1248 532.8C1247.77 532.805 1247.54 532.727 1247.35 532.581C1247.17 532.435 1247.05 532.23 1247 532L1240.4 492.4H1229.7C1228.48 492.421 1227.27 492.183 1226.15 491.7C1225.03 491.217 1224.02 490.501 1223.2 489.6C1218.2 484.4 1217.8 473.7 1217.8 470.7L1214.9 469.8C1214.77 469.761 1214.65 469.697 1214.55 469.611C1214.45 469.525 1214.36 469.42 1214.3 469.3C1214.2 469.008 1214.2 468.692 1214.3 468.4C1214.3 468.4 1214.9 467.3 1219.6 456.4C1223.62 447.574 1228.17 438.993 1233.2 430.7C1234.99 427.603 1237.49 424.98 1240.5 423.049C1243.51 421.118 1246.94 419.935 1250.5 419.6C1263.1 418.6 1269 428.5 1274.2 437.2L1274.4 437.6C1278.5 444.4 1276.8 454.1 1275 464.5C1273.7 472.1 1272.3 479.9 1273.3 486.4C1275.7 501.4 1297.1 515.6 1297.3 515.7C1297.41 515.783 1297.5 515.888 1297.57 516.008C1297.64 516.129 1297.69 516.262 1297.7 516.4C1297.74 516.539 1297.75 516.687 1297.71 516.828C1297.68 516.969 1297.6 517.098 1297.5 517.2C1288.6 527.4 1249.8 532.7 1248.1 532.9L1248 532.8ZM1216.6 468.1L1219.1 468.8C1219.3 468.889 1219.46 469.029 1219.59 469.205C1219.71 469.38 1219.78 469.586 1219.8 469.8C1219.8 470 1219.5 482.8 1224.6 488.1C1225.25 488.805 1226.04 489.366 1226.91 489.745C1227.79 490.124 1228.74 490.313 1229.7 490.3H1241.3C1241.53 490.295 1241.76 490.373 1241.94 490.519C1242.13 490.665 1242.25 490.871 1242.3 491.1L1248.8 530.6C1254.7 529.7 1286.3 524.8 1295.2 516.5C1290.8 513.4 1273.6 500.6 1271.3 486.6C1270.3 479.7 1271.7 471.7 1273 464C1274.7 454 1276.4 444.6 1272.7 438.4L1272.5 438.1C1267.3 429.4 1262 420.5 1250.6 421.4C1247.37 421.713 1244.26 422.792 1241.53 424.549C1238.8 426.306 1236.52 428.689 1234.9 431.5C1229.92 439.737 1225.41 448.251 1221.4 457L1216.6 468.1Z" fill="#292131"/>
<path d="M1375.9 1453.6C1375.9 1453.6 1582.6 1663.8 1582.5 1694.7C1582.4 1725.6 1539.9 1764.5 1515 1768.5C1490.1 1772.5 1515.5 1793 1552.6 1776.7C1589.7 1760.4 1643.3 1734.6 1637.1 1694.8C1631.9 1661.7 1524.1 1372.4 1524.1 1372.4L1375.9 1453.6Z" fill="#FBF4F5"/>
<path d="M1525.3 1784C1516.1 1784 1509.5 1781.6 1506.4 1778.9C1503.3 1776.2 1503.7 1775.3 1504.2 1773.4C1504.7 1771.5 1507.1 1768.8 1514.9 1767.6C1538.8 1763.6 1581.5 1725.4 1581.5 1694.7C1581.5 1664 1377.2 1456.4 1375.2 1454.3C1375.07 1454.19 1374.97 1454.05 1374.92 1453.89C1374.87 1453.73 1374.86 1453.56 1374.9 1453.4C1374.91 1453.25 1374.96 1453.1 1375.05 1452.98C1375.14 1452.85 1375.26 1452.76 1375.4 1452.7L1523.6 1371.6C1523.71 1371.51 1523.85 1371.46 1523.99 1371.44C1524.13 1371.42 1524.27 1371.44 1524.4 1371.5C1524.54 1371.54 1524.67 1371.62 1524.77 1371.73C1524.88 1371.83 1524.96 1371.96 1525 1372.1C1529.4 1383.9 1632.9 1661.8 1638.1 1694.7C1640.9 1712.5 1632 1729.5 1611.7 1745.4C1595 1758.4 1573.6 1768.6 1553 1777.6C1542.4 1782.3 1533 1784 1525.3 1784ZM1377.5 1453.8C1394.4 1471 1583.6 1664.5 1583.5 1694.7C1583.5 1708.9 1574.5 1726.2 1558.8 1742.3C1544.7 1756.8 1527.6 1767.5 1515.2 1769.5C1510.1 1770.4 1506.7 1772 1506.1 1774C1505.5 1776 1506.8 1776.6 1507.7 1777.4C1513.4 1782.3 1531 1785.1 1552.2 1775.8C1573.4 1766.5 1594 1756.7 1610.5 1743.8C1630.4 1728.2 1638.8 1712.3 1636.1 1695C1631.1 1663.3 1530.8 1393.3 1523.5 1373.9L1377.5 1453.8Z" fill="#292131"/>
<path d="M1504 1774.7L1504.8 1811.6C1510.5 1812.5 1551.7 1827.9 1586.2 1818.8C1620.7 1809.7 1683.2 1744.6 1682.2 1740.3C1681.2 1736 1633.4 1667.5 1630.9 1676.3C1628.4 1685.1 1634.9 1710.2 1614 1734.6C1593.1 1759 1570.6 1726.1 1565.1 1732.3C1559.6 1738.5 1546.9 1750.5 1546.9 1750.5L1572.8 1765.6C1572.8 1765.6 1543.3 1786.7 1504 1774.7Z" fill="#7F44D6"/>
<path d="M1223.6 656.3C1223.6 656.3 888.701 1299 884.601 1379.2C880.501 1459.4 1015.1 1671.6 1327.8 1600.9C1640.5 1530.2 1591.9 1436.3 1591.9 1436.3L1347.2 781.2C1347.2 781.2 1365.6 673 1263.4 643.3C1238.9 636.2 1223.6 656.3 1223.6 656.3Z" fill="#966BD6"/>
<path d="M1075.6 1412.1H1075.4C1075.27 1412.08 1075.14 1412.03 1075.03 1411.95C1074.92 1411.88 1074.82 1411.78 1074.74 1411.67C1074.67 1411.56 1074.62 1411.43 1074.59 1411.3C1074.57 1411.17 1074.57 1411.03 1074.6 1410.9L1232.5 687.2C1232.55 686.953 1232.69 686.733 1232.89 686.584C1233.1 686.436 1233.35 686.37 1233.6 686.4C1233.86 686.47 1234.08 686.63 1234.22 686.851C1234.37 687.071 1234.43 687.337 1234.4 687.6L1076.6 1411.3C1076.54 1411.52 1076.41 1411.72 1076.23 1411.86C1076.05 1412 1075.83 1412.09 1075.6 1412.1Z" fill="#292131"/>
<path d="M1328.1 1522.7C1327.97 1522.71 1327.85 1522.7 1327.72 1522.66C1327.6 1522.62 1327.49 1522.56 1327.4 1522.47C1327.3 1522.39 1327.23 1522.29 1327.18 1522.17C1327.13 1522.05 1327.1 1521.93 1327.1 1521.8L1269.2 695.4C1269.2 695.151 1269.29 694.911 1269.46 694.726C1269.62 694.541 1269.85 694.425 1270.1 694.4C1270.23 694.37 1270.37 694.37 1270.51 694.401C1270.64 694.433 1270.76 694.494 1270.87 694.581C1270.98 694.668 1271.06 694.778 1271.12 694.903C1271.18 695.027 1271.2 695.163 1271.2 695.3L1329.1 1521.6C1329.11 1521.74 1329.1 1521.88 1329.05 1522.01C1329.01 1522.15 1328.94 1522.27 1328.84 1522.37C1328.75 1522.48 1328.64 1522.56 1328.51 1522.62C1328.38 1522.67 1328.24 1522.7 1328.1 1522.7Z" fill="#292131"/>
<path d="M1474.2 1558.1C1473.97 1558.09 1473.75 1558 1473.57 1557.86C1473.39 1557.72 1473.26 1557.52 1473.2 1557.3L1302.6 692.6C1302.57 692.35 1302.64 692.097 1302.78 691.893C1302.93 691.689 1303.15 691.549 1303.4 691.5C1303.65 691.439 1303.92 691.477 1304.14 691.608C1304.37 691.738 1304.53 691.951 1304.6 692.2L1475.2 1556.9C1475.23 1557.16 1475.17 1557.43 1475.02 1557.65C1474.88 1557.87 1474.66 1558.03 1474.4 1558.1H1474.2Z" fill="#292131"/>
<path d="M1275.1 696.3C1265.34 696.257 1255.63 694.98 1246.2 692.5C1234.68 689.539 1223.64 684.96 1213.4 678.9C1213.19 678.768 1213.04 678.556 1212.98 678.312C1212.92 678.069 1212.97 677.812 1213.1 677.6C1213.23 677.388 1213.44 677.237 1213.69 677.181C1213.93 677.125 1214.19 677.168 1214.4 677.3C1215 677.6 1266.7 710.1 1317.3 684.5C1317.42 684.43 1317.55 684.385 1317.68 684.368C1317.82 684.35 1317.95 684.36 1318.09 684.398C1318.22 684.435 1318.34 684.499 1318.44 684.586C1318.55 684.672 1318.64 684.779 1318.7 684.9C1318.81 685.154 1318.81 685.438 1318.72 685.697C1318.63 685.957 1318.44 686.172 1318.2 686.3C1304.83 693.001 1290.06 696.428 1275.1 696.3Z" fill="#292131"/>
<path d="M884.6 1379.2C884.6 1379.2 1068.1 1338.4 1077.7 1395.5C1087.3 1452.6 967.5 1436.3 981.1 1466.2C994.7 1496.1 1328.9 1463.9 1329.2 1522.6C1329.4 1566 1279.3 1566.4 1255.8 1584.5C1248.2 1590.4 1252.7 1615.4 1290.3 1608.1C1290.3 1608.1 1103.3 1655.6 973.4 1535.5C869.4 1439.3 884.6 1379.2 884.6 1379.2Z" fill="#292131"/>
<path d="M1360.4 1207.7H1360.3C1360.16 1207.7 1360.03 1207.68 1359.9 1207.62C1359.78 1207.56 1359.67 1207.48 1359.58 1207.37C1359.49 1207.26 1359.43 1207.14 1359.4 1207.01C1359.37 1206.87 1359.37 1206.73 1359.4 1206.6C1359.6 1204.2 1365.3 1147.5 1388.9 1142.4C1402.8 1139.4 1419.8 1155.2 1439.4 1189.4C1439.47 1189.5 1439.52 1189.62 1439.54 1189.74C1439.57 1189.87 1439.57 1189.99 1439.54 1190.12C1439.51 1190.24 1439.46 1190.35 1439.38 1190.45C1439.31 1190.56 1439.21 1190.64 1439.1 1190.7C1438.98 1190.77 1438.85 1190.82 1438.72 1190.83C1438.58 1190.85 1438.44 1190.84 1438.31 1190.8C1438.18 1190.77 1438.06 1190.7 1437.95 1190.61C1437.85 1190.53 1437.76 1190.42 1437.7 1190.3C1418.6 1157 1402.3 1141.5 1389.3 1144.4C1367.1 1149.2 1361.4 1206.3 1361.4 1206.8C1361.37 1207.05 1361.26 1207.28 1361.07 1207.44C1360.89 1207.61 1360.65 1207.7 1360.4 1207.7Z" fill="#FFE500"/>
<path d="M1118.2 1483.7C1118.2 1483.7 1141.6 1644.8 1132.5 1677.4C1123.4 1710 1038.2 1730 1038.7 1737.7C1039.2 1745.4 1161.1 1734.6 1175.6 1718.7C1190.1 1702.8 1206.8 1486.7 1206.8 1486.7L1118.2 1483.7Z" fill="#FBF4F5"/>
<path d="M1055.2 1741.3C1047.8 1741.3 1042.4 1740.8 1039.9 1739.9C1039.4 1739.7 1037.8 1739.2 1037.7 1737.8C1037.5 1734.6 1044.9 1731.4 1061.6 1724.5C1087.1 1714 1125.7 1698.1 1131.6 1677.1C1140.5 1645.1 1117.4 1485.4 1117.2 1483.8C1117.16 1483.52 1117.23 1483.23 1117.4 1483C1117.51 1482.9 1117.63 1482.82 1117.77 1482.77C1117.91 1482.72 1118.05 1482.69 1118.2 1482.7L1206.8 1485.7C1206.93 1485.7 1207.06 1485.72 1207.18 1485.77C1207.3 1485.82 1207.41 1485.9 1207.5 1486C1207.6 1486.11 1207.68 1486.23 1207.73 1486.37C1207.78 1486.51 1207.81 1486.65 1207.8 1486.8C1207.1 1495.6 1190.9 1703.4 1176.3 1719.4C1167.6 1728.9 1125.8 1735.1 1108.2 1737.3C1087.8 1739.9 1068.4 1741.3 1055.2 1741.3ZM1039.7 1737.6C1039.9 1737.8 1040.9 1738.6 1046.5 1739C1074.5 1741.1 1163.2 1730.8 1174.8 1718C1188.4 1703.1 1204.4 1503.9 1205.7 1487.7L1119.4 1484.7C1121.6 1500.6 1142.2 1646.3 1133.5 1677.7C1127.4 1699.6 1088.2 1715.7 1062.3 1726.4C1052.3 1730.5 1039.9 1735.6 1039.7 1737.6Z" fill="#292131"/>
<path d="M1198.6 556.8C1198.6 556.8 1035.3 608.7 997.899 588.3C963.199 569.4 809.899 457.1 782.099 456.5C754.299 455.9 746.299 461.1 748.799 462C751.299 462.9 760.299 461.4 760.299 461.4C760.299 461.4 748.499 462.8 748.999 464.4C749.499 466 764.899 464 764.899 464C764.899 464 746.699 466 750.799 467.7C754.899 469.4 764.499 467.5 764.499 467.5C764.499 467.5 756.599 467.7 752.299 471C750.599 472.3 772.199 473.1 772.199 473.1C772.199 473.1 759.199 477.2 761.899 478.8C764.599 480.4 782.199 478.7 782.199 478.7C782.199 478.7 986.699 659.2 1007.5 657C1028.3 654.8 1221.4 622.7 1221.4 622.7L1198.6 556.8Z" fill="#FBF4F5"/>
<path d="M1007.2 658.1C984.4 658.1 793.9 490.4 781.8 479.7C778 480.1 764 481.3 761.3 479.7C761.038 479.526 760.827 479.287 760.687 479.007C760.546 478.726 760.482 478.414 760.5 478.1C760.7 476.7 763.5 475.2 766.9 473.9C751.8 473.2 751.5 472.2 751.3 471.5C751.227 471.268 751.226 471.02 751.298 470.788C751.369 470.556 751.509 470.351 751.7 470.2L753 469.3C752.099 469.221 751.218 468.984 750.4 468.6C749.2 468.1 749.1 467.4 749.2 467C749.3 466.6 749.3 466.4 750.1 465.9C748.3 465.6 748.2 465.1 748.1 464.8C748.018 464.607 747.985 464.397 748.002 464.188C748.02 463.979 748.087 463.777 748.2 463.6C748.3 463.4 748.6 463.2 748.8 463H748.5C748.145 462.927 747.832 462.72 747.627 462.422C747.422 462.124 747.341 461.757 747.4 461.4C748 458.3 760.3 455.2 782.1 455.6C801 456 874.6 505.6 933.8 545.5C962.3 564.7 986.9 581.3 998.3 587.5C1004.3 590.8 1013.6 592.2 1025.1 592.2C1083.5 592.2 1196.9 556.3 1198.3 555.9C1198.42 555.854 1198.54 555.832 1198.67 555.838C1198.8 555.843 1198.92 555.875 1199.03 555.932C1199.15 555.989 1199.25 556.068 1199.33 556.166C1199.41 556.264 1199.47 556.378 1199.5 556.5L1222.4 622.5C1222.47 622.77 1222.43 623.056 1222.3 623.3C1222.14 623.548 1221.89 623.726 1221.6 623.8C1219.7 624.1 1028.3 656 1007.6 658.1H1007.2ZM782.2 477.7L782.8 477.9C783.3 478.4 834.6 523.6 887.7 567.9C976.2 641.8 1001.7 656.6 1007.4 656C1027.1 654 1203.9 624.6 1220.1 621.9L1198 558C1191.6 560 1153.7 571.7 1112.5 581.2C1051.8 595.1 1013.1 597.8 997.4 589.2C985.8 582.9 961.2 566.3 932.7 547C876.8 509.4 800.4 457.9 782.1 457.5C761.4 457.1 752.7 459.8 750.2 461.2C752.878 461.214 755.553 461.013 758.2 460.6L760.1 460.4C760.239 460.371 760.382 460.372 760.52 460.403C760.659 460.434 760.789 460.494 760.903 460.579C761.016 460.664 761.11 460.773 761.179 460.897C761.247 461.021 761.288 461.159 761.3 461.3C761.286 461.556 761.192 461.8 761.03 461.998C760.868 462.196 760.647 462.337 760.4 462.4L758.7 462.6C756.204 462.943 753.732 463.444 751.3 464.1C753.4 464.1 757.1 463.9 760.9 463.5L764.8 463C764.931 462.986 765.064 462.999 765.191 463.037C765.317 463.075 765.435 463.137 765.537 463.221C765.64 463.304 765.724 463.408 765.786 463.524C765.849 463.641 765.887 463.769 765.9 463.9C765.93 464.151 765.864 464.403 765.715 464.607C765.567 464.811 765.347 464.952 765.1 465L761.2 465.5C757.6 466 754.1 466.6 752.2 467.1C754.032 467.538 755.924 467.673 757.8 467.5C759.991 466.929 762.237 466.594 764.5 466.5C764.748 466.499 764.989 466.59 765.174 466.757C765.358 466.923 765.475 467.153 765.5 467.4C765.529 467.519 765.534 467.642 765.514 467.762C765.495 467.882 765.451 467.997 765.385 468.1C765.32 468.203 765.234 468.292 765.134 468.36C765.033 468.429 764.919 468.477 764.8 468.5C764.6 468.5 761.6 469.2 758.1 469.5C756.823 469.799 755.583 470.235 754.4 470.8C757.7 471.4 765.3 471.8 772.2 472.1C772.429 472.112 772.649 472.196 772.828 472.34C773.007 472.483 773.137 472.679 773.2 472.9C773.229 473.019 773.234 473.142 773.214 473.262C773.195 473.382 773.151 473.497 773.085 473.6C773.02 473.703 772.934 473.792 772.834 473.86C772.733 473.929 772.619 473.977 772.5 474C768.6 475.3 764.1 477.1 762.8 478.1C765.4 478.9 775.3 478.4 782.1 477.7H782.2Z" fill="#292131"/>
<path d="M1037.7 1737.1L1038.7 1792.1C1038.7 1792.1 1152.4 1807.1 1197.3 1774L1188.6 1695.9C1188.5 1693.9 1187 1685.3 1184.9 1685.2C1182.8 1685.1 1182.4 1692.4 1180.8 1698.7C1177.7 1711.5 1175 1721 1132.7 1731.3L1107.9 1702.4L1088.8 1712.7L1101.6 1735.6C1101.6 1735.6 1050.9 1742.6 1037.7 1737.1Z" fill="#7F44D6"/>
<path d="M1358.4 620L1321.4 657.1C1267.5 685.7 1223.6 656.3 1223.6 656.3L1227 625.7L1188.6 634L1168.3 562L1246.1 527C1246.1 527 1250.1 541 1286.6 507C1286.6 507 1353.9 527.5 1358.4 620Z" fill="#FFE500"/>
<path d="M1403.4 1152.5C1402 1153.1 1395.6 1140.7 1395.6 1140.7C1395.6 1140.7 1400.9 1154.2 1399.2 1154.7C1397.5 1155.2 1388.3 1143.1 1387.8 1142.4C1388.3 1143.3 1396.9 1158.1 1395.5 1158.4C1394.1 1158.7 1384 1149.1 1383.4 1148.5C1382.8 1147.9 1393.3 1159.4 1393.1 1159.8C1392.9 1160.2 1390.6 1161.1 1375.6 1147.5C1375.1 1151.7 1373.8 1162.2 1372.2 1162.2C1370.6 1162.2 1367.9 1133.7 1367.8 1132.8C1345.8 1052.9 1295.3 615.7 1295.3 615.7C1313 575.8 1362.2 613.9 1362.2 613.9C1362.2 613.9 1372 713.2 1376 793.6C1378.5 844.8 1404.8 1152 1403.4 1152.5Z" fill="#FBF4F5"/>
<path d="M1372.3 1163.2H1372.2C1371.1 1163.1 1370.1 1163.1 1368.3 1147.9C1367.5 1140.8 1366.9 1133.9 1366.8 1133C1345 1053.7 1294.8 620.2 1294.3 615.8C1294.28 615.627 1294.32 615.454 1294.4 615.3C1298.7 605.6 1305.2 599.5 1313.8 597.4C1325 594.6 1337.8 599 1346.5 603.2C1352.24 606.003 1357.7 609.352 1362.8 613.2C1362.91 613.262 1363 613.348 1363.07 613.453C1363.14 613.557 1363.18 613.676 1363.2 613.8C1363.3 614.8 1373 714.1 1377 793.5C1378.3 819.8 1385.9 914.9 1392.7 998.8C1396 1039.2 1399 1077.4 1401.2 1105.7C1402.4 1120.9 1403.2 1132 1403.8 1139.7C1404.7 1153.1 1404.7 1153.1 1403.8 1153.5C1403.3 1153.7 1402.4 1154 1399.9 1150.2C1400.5 1152.4 1400.7 1154.2 1400.3 1154.9C1400.22 1155.09 1400.1 1155.26 1399.94 1155.4C1399.78 1155.54 1399.6 1155.64 1399.4 1155.7C1398.9 1155.8 1398 1156 1394 1151.7C1397 1157.5 1396.7 1158.2 1396.5 1158.7C1396.41 1158.87 1396.29 1159.01 1396.13 1159.12C1395.97 1159.22 1395.79 1159.29 1395.6 1159.3C1395.3 1159.4 1394.9 1159.5 1393.4 1158.4C1394.3 1159.7 1394.2 1159.9 1393.9 1160.3C1393.81 1160.47 1393.69 1160.61 1393.53 1160.72C1393.37 1160.82 1393.19 1160.89 1393 1160.9C1390.8 1161.3 1385.2 1157.5 1376.3 1149.6C1374.9 1162.6 1373.3 1163.2 1372.3 1163.2ZM1296.3 615.9C1297.8 628.9 1347.3 1054.4 1368.8 1132.5V1132.7C1369.3 1139.2 1371 1156.1 1372.3 1160.4C1373 1158.7 1373.8 1154.4 1374.6 1147.4C1374.59 1147.22 1374.65 1147.04 1374.76 1146.89C1374.87 1146.75 1375.02 1146.65 1375.2 1146.6C1375.6 1146.5 1376 1146.5 1376.2 1146.8C1384.2 1154 1388.4 1156.9 1390.6 1158.1L1383 1149.7L1382.6 1149.2C1382.41 1149 1382.31 1148.74 1382.32 1148.46C1382.33 1148.19 1382.45 1147.94 1382.65 1147.75C1382.85 1147.56 1383.11 1147.47 1383.38 1147.47C1383.66 1147.48 1383.91 1147.6 1384.1 1147.8H1384.2C1387.34 1150.85 1390.65 1153.72 1394.1 1156.4C1391.99 1151.8 1389.62 1147.33 1387 1143V1142.8C1386.88 1142.58 1386.85 1142.33 1386.9 1142.09C1386.96 1141.85 1387.1 1141.64 1387.3 1141.5C1387.52 1141.36 1387.78 1141.31 1388.04 1141.35C1388.29 1141.38 1388.53 1141.51 1388.7 1141.7C1393.5 1148.1 1397.1 1152 1398.6 1153.2C1398.4 1151.1 1396.6 1145.6 1394.8 1141C1394.7 1140.76 1394.69 1140.49 1394.79 1140.25C1394.88 1140.01 1395.06 1139.81 1395.3 1139.7C1395.53 1139.61 1395.78 1139.6 1396.02 1139.68C1396.25 1139.75 1396.46 1139.9 1396.6 1140.1C1398.36 1143.59 1400.33 1146.96 1402.5 1150.2C1402 1137.8 1396.6 1070.1 1390.8 998.8C1384.1 915 1376.4 819.9 1375.1 793.5C1371.3 716.8 1362 621.6 1361.3 614.4C1358.2 612 1333.6 594.4 1314.4 599.2C1306.4 601.3 1300.3 606.9 1296.3 615.9Z" fill="#292131"/>
<path d="M1273.1 648.5L1369.1 637.6C1369.1 637.6 1354.3 551.1 1315.4 537.5C1276.5 523.9 1273.1 648.5 1273.1 648.5Z" fill="#FFE500"/>
<path d="M1095.3 1776.6C1065.3 1776.6 1040.1 1773.7 1039.8 1773.7C1039.53 1773.67 1039.29 1773.54 1039.12 1773.34C1038.95 1773.13 1038.87 1772.87 1038.9 1772.6C1038.93 1772.34 1039.06 1772.09 1039.26 1771.92C1039.47 1771.75 1039.73 1771.67 1040 1771.7C1041.3 1771.8 1167.7 1785.8 1192.2 1750C1192.36 1749.79 1192.6 1749.65 1192.86 1749.61C1193.12 1749.57 1193.39 1749.64 1193.6 1749.8C1193.81 1749.96 1193.95 1750.2 1193.99 1750.46C1194.03 1750.72 1193.96 1750.99 1193.8 1751.2C1183.2 1766.7 1154 1775.2 1107.1 1776.4L1095.3 1776.6Z" fill="#292131"/>
<path d="M1555.1 1803C1550.8 1803 1546.6 1802.9 1542.7 1802.6C1530.47 1801.62 1518.36 1799.55 1506.5 1796.4C1506.37 1796.38 1506.24 1796.33 1506.13 1796.25C1506.03 1796.18 1505.93 1796.08 1505.87 1795.97C1505.8 1795.85 1505.76 1795.72 1505.75 1795.59C1505.74 1795.46 1505.75 1795.32 1505.8 1795.2C1505.87 1794.95 1506.03 1794.74 1506.26 1794.61C1506.48 1794.48 1506.75 1794.44 1507 1794.5C1507.6 1794.7 1571.3 1812.2 1601 1788.9C1630.7 1765.6 1671.4 1728.1 1671.8 1727.7C1672.01 1727.55 1672.26 1727.48 1672.52 1727.5C1672.77 1727.52 1673.01 1727.62 1673.2 1727.8C1673.38 1727.99 1673.49 1728.24 1673.49 1728.5C1673.49 1728.76 1673.38 1729.01 1673.2 1729.2C1672.8 1729.6 1632.5 1766.7 1602.3 1790.4C1589.7 1800.4 1571.3 1803 1555.1 1803Z" fill="#292131"/>
<path d="M1589.6 1797.5C1589.42 1797.49 1589.25 1797.44 1589.09 1797.35C1588.94 1797.27 1588.8 1797.15 1588.7 1797L1580.6 1783.4C1580.49 1783.17 1580.47 1782.91 1580.54 1782.67C1580.62 1782.43 1580.78 1782.23 1581 1782.1C1581.11 1782.03 1581.24 1781.98 1581.37 1781.95C1581.5 1781.93 1581.63 1781.93 1581.76 1781.96C1581.89 1781.98 1582.02 1782.04 1582.13 1782.11C1582.24 1782.19 1582.33 1782.29 1582.4 1782.4L1590.5 1796C1590.61 1796.23 1590.63 1796.49 1590.55 1796.73C1590.48 1796.97 1590.32 1797.17 1590.1 1797.3L1589.6 1797.5Z" fill="#292131"/>
<path d="M1571.1 1500.6C1571.1 1500.6 1517.6 1572.4 1489.7 1574.1L1474.2 1557.1C1474.2 1557.1 1538.8 1532.5 1570.7 1499.2L1571.1 1500.6Z" fill="#292131"/>
<path d="M1584.1 1695.3C1583.88 1695.31 1583.66 1695.25 1583.48 1695.12C1583.3 1694.99 1583.17 1694.81 1583.1 1694.6C1583.04 1694.35 1583.08 1694.08 1583.21 1693.86C1583.34 1693.64 1583.55 1693.47 1583.8 1693.4L1600.2 1689.9C1600.32 1689.85 1600.46 1689.84 1600.59 1689.85C1600.72 1689.86 1600.85 1689.9 1600.97 1689.97C1601.08 1690.03 1601.18 1690.13 1601.25 1690.23C1601.33 1690.34 1601.38 1690.47 1601.4 1690.6C1601.43 1690.73 1601.43 1690.87 1601.41 1691C1601.38 1691.13 1601.33 1691.26 1601.26 1691.37C1601.18 1691.48 1601.08 1691.58 1600.97 1691.65C1600.86 1691.73 1600.73 1691.78 1600.6 1691.8L1584.3 1695.3H1584.1Z" fill="#292131"/>
<path d="M1278 1796.5H918.401C918.136 1796.5 917.881 1796.39 917.694 1796.21C917.506 1796.02 917.401 1795.77 917.401 1795.5C917.385 1795.36 917.4 1795.23 917.444 1795.1C917.489 1794.97 917.562 1794.85 917.658 1794.76C917.754 1794.66 917.871 1794.59 918 1794.54C918.129 1794.5 918.266 1794.48 918.401 1794.5H1278C1278.14 1794.48 1278.27 1794.5 1278.4 1794.54C1278.53 1794.59 1278.65 1794.66 1278.74 1794.76C1278.84 1794.85 1278.91 1794.97 1278.96 1795.1C1279 1795.23 1279.02 1795.36 1279 1795.5C1279 1795.77 1278.89 1796.02 1278.71 1796.21C1278.52 1796.39 1278.27 1796.5 1278 1796.5Z" fill="#292131"/>
<path d="M1658.9 1822.7H1452.9C1452.64 1822.68 1452.4 1822.57 1452.22 1822.38C1452.03 1822.2 1451.92 1821.96 1451.9 1821.7C1451.9 1821.43 1452 1821.18 1452.19 1820.99C1452.38 1820.81 1452.63 1820.7 1452.9 1820.7H1658.9C1659.16 1820.7 1659.42 1820.81 1659.61 1820.99C1659.79 1821.18 1659.9 1821.43 1659.9 1821.7C1659.88 1821.96 1659.76 1822.2 1659.58 1822.38C1659.4 1822.57 1659.16 1822.68 1658.9 1822.7Z" fill="#292131"/>
<path d="M1891 1873.5H1260C1259.74 1873.48 1259.5 1873.37 1259.32 1873.18C1259.13 1873 1259.02 1872.76 1259 1872.5C1259 1872.24 1259.1 1871.98 1259.29 1871.79C1259.48 1871.61 1259.73 1871.5 1260 1871.5H1891C1891.26 1871.5 1891.52 1871.61 1891.71 1871.79C1891.89 1871.98 1892 1872.24 1892 1872.5C1891.98 1872.76 1891.86 1873 1891.68 1873.18C1891.5 1873.37 1891.26 1873.48 1891 1873.5Z" fill="#292131"/>
<path d="M1050.8 1873.5H983.799C983.534 1873.5 983.279 1873.39 983.092 1873.21C982.904 1873.02 982.799 1872.77 982.799 1872.5C982.783 1872.36 982.797 1872.23 982.842 1872.1C982.887 1871.97 982.96 1871.85 983.056 1871.76C983.152 1871.66 983.269 1871.59 983.398 1871.54C983.527 1871.5 983.664 1871.48 983.799 1871.5H1050.8C1051.07 1871.5 1051.32 1871.61 1051.51 1871.79C1051.69 1871.98 1051.8 1872.23 1051.8 1872.5C1051.78 1872.76 1051.66 1873 1051.48 1873.18C1051.3 1873.37 1051.06 1873.48 1050.8 1873.5Z" fill="#292131"/>
<path d="M1227.5 442.6C1227.5 442.6 1232.1 433.3 1265.2 444.8C1265.2 444.8 1274.3 447.3 1273.7 460.4C1273.3 468.1 1272.8 471.1 1272.8 471.1C1272.8 471.1 1283.1 454.1 1281.4 437.4C1279.7 420.7 1242.9 402.8 1227.5 442.6Z" fill="#292131"/>
<path d="M1227.5 442.6C1227.5 442.6 1242.6 460.4 1270.3 444.3C1298 428.2 1234.5 428.4 1227.5 442.6Z" fill="#292131"/>
<path d="M1259.7 452.3C1259.8 450.588 1260.4 448.943 1261.44 447.573C1262.47 446.203 1263.88 445.169 1265.5 444.6C1267.12 444.032 1268.87 443.955 1270.53 444.378C1272.2 444.802 1273.7 445.707 1274.84 446.981C1275.99 448.255 1276.74 449.84 1276.99 451.537C1277.24 453.234 1276.99 454.967 1276.25 456.519C1275.52 458.07 1274.35 459.371 1272.88 460.257C1271.41 461.144 1269.71 461.576 1268 461.5" fill="#FBF4F5"/>
<path d="M1268.4 462.5H1267.9C1267.76 462.504 1267.63 462.476 1267.5 462.419C1267.38 462.361 1267.27 462.277 1267.18 462.17C1267.09 462.064 1267.03 461.94 1267 461.806C1266.97 461.673 1266.97 461.534 1267 461.4C1267 461.273 1267.03 461.147 1267.08 461.031C1267.13 460.915 1267.2 460.811 1267.3 460.726C1267.39 460.641 1267.5 460.577 1267.62 460.538C1267.75 460.499 1267.87 460.486 1268 460.5C1270.04 460.583 1272.02 459.865 1273.54 458.501C1275.05 457.136 1275.97 455.234 1276.1 453.2C1276.16 452.18 1276.01 451.159 1275.67 450.197C1275.33 449.234 1274.79 448.351 1274.1 447.6C1273.43 446.845 1272.62 446.233 1271.71 445.803C1270.8 445.373 1269.81 445.134 1268.8 445.1C1266.79 445.011 1264.82 445.69 1263.3 447C1262.52 447.673 1261.88 448.5 1261.44 449.429C1260.99 450.358 1260.74 451.37 1260.7 452.4C1260.67 452.648 1260.56 452.877 1260.37 453.044C1260.19 453.21 1259.95 453.301 1259.7 453.3C1259.43 453.3 1259.18 453.195 1258.99 453.007C1258.81 452.82 1258.7 452.565 1258.7 452.3C1258.86 449.736 1260 447.334 1261.9 445.6C1262.84 444.734 1263.94 444.067 1265.15 443.637C1266.35 443.208 1267.62 443.025 1268.9 443.1C1270.18 443.133 1271.44 443.434 1272.59 443.986C1273.75 444.537 1274.77 445.326 1275.6 446.3C1276.47 447.239 1277.13 448.343 1277.56 449.546C1277.99 450.748 1278.17 452.025 1278.1 453.3C1277.95 455.777 1276.86 458.104 1275.06 459.811C1273.26 461.519 1270.88 462.48 1268.4 462.5Z" fill="#292131"/>
<path d="M1265.7 456.1C1265.52 456.089 1265.35 456.038 1265.19 455.952C1265.04 455.865 1264.9 455.745 1264.8 455.6C1264.69 455.373 1264.67 455.113 1264.74 454.872C1264.82 454.631 1264.98 454.427 1265.2 454.3L1271.7 450.4C1271.93 450.291 1272.19 450.271 1272.43 450.345C1272.67 450.419 1272.87 450.582 1273 450.8C1273.12 451.031 1273.16 451.299 1273.11 451.556C1273.05 451.812 1272.91 452.041 1272.7 452.2L1266.2 456L1265.7 456.1Z" fill="#292131"/>
<path d="M1263.3 425C1263.3 425 1274 374.4 1336.8 388.4C1399.6 402.4 1407.4 463.5 1387.8 471.9C1368.2 480.3 1344.3 467 1341.3 430.8C1338.3 394.6 1286.7 389.9 1266.3 425.2" fill="#292131"/>
<path d="M1265.2 428.6H1264.7C1264.59 428.529 1264.49 428.436 1264.41 428.327C1264.34 428.217 1264.28 428.094 1264.25 427.963C1264.23 427.833 1264.23 427.698 1264.25 427.567C1264.27 427.436 1264.33 427.311 1264.4 427.2C1264.8 426.5 1275 410.3 1290 407.2C1296.8 405.7 1303.5 407.2 1309.8 411.5C1309.91 411.571 1310.01 411.664 1310.09 411.774C1310.16 411.883 1310.22 412.007 1310.24 412.137C1310.27 412.267 1310.27 412.402 1310.25 412.533C1310.22 412.664 1310.17 412.789 1310.1 412.9C1310.03 413.013 1309.94 413.111 1309.83 413.187C1309.72 413.264 1309.59 413.317 1309.46 413.345C1309.33 413.373 1309.2 413.375 1309.07 413.35C1308.94 413.325 1308.81 413.274 1308.7 413.2C1302.8 409.2 1296.7 407.8 1290.5 409.1C1276.3 412.1 1266.2 428.1 1266.1 428.2C1266 428.347 1265.87 428.463 1265.71 428.534C1265.55 428.605 1265.37 428.628 1265.2 428.6Z" fill="#292131"/>
<path d="M1297.9 645.7L1365.4 648.5L1364.8 638.1L1297.9 645.7Z" fill="#292131"/>
<path d="M1272.1 423H1271.7L1264.3 419.7C1264.06 419.591 1263.88 419.394 1263.79 419.152C1263.69 418.909 1263.7 418.639 1263.8 418.4C1263.93 418.157 1264.14 417.97 1264.4 417.878C1264.66 417.785 1264.95 417.793 1265.2 417.9L1272.5 421.2C1272.74 421.309 1272.92 421.506 1273.01 421.749C1273.11 421.992 1273.1 422.261 1273 422.5C1272.9 422.651 1272.77 422.775 1272.61 422.862C1272.46 422.949 1272.28 422.997 1272.1 423Z" fill="#966BD6"/>
<path d="M1240.6 490.4C1240.6 490.4 1250.9 489.7 1256.2 485L1244 507.6L1240.6 490.4Z" fill="#292131"/>
<path d="M1169.3 565.5L1180.8 629.4L1187.1 628.4L1169.3 565.5Z" fill="#292131"/>
<path d="M1244.9 518.9C1244.33 518.961 1243.76 518.893 1243.22 518.703C1242.69 518.513 1242.2 518.204 1241.8 517.8C1240.3 516.2 1241.9 513.7 1242.1 513.4C1242.16 513.291 1242.24 513.195 1242.34 513.119C1242.45 513.044 1242.56 512.99 1242.68 512.962C1242.81 512.934 1242.93 512.931 1243.06 512.955C1243.18 512.979 1243.3 513.028 1243.4 513.1C1243.51 513.171 1243.61 513.264 1243.69 513.374C1243.76 513.483 1243.82 513.607 1243.84 513.737C1243.87 513.867 1243.87 514.002 1243.85 514.133C1243.82 514.264 1243.77 514.389 1243.7 514.5C1243.4 515 1242.9 516.1 1243.3 516.5C1243.7 516.9 1247 518.8 1269.8 507.5C1279.6 502.6 1280.2 500 1280.1 499.3C1280 498.6 1278.8 497.9 1278.8 497.9C1278.68 497.867 1278.56 497.808 1278.47 497.728C1278.37 497.648 1278.29 497.548 1278.23 497.434C1278.17 497.321 1278.14 497.197 1278.14 497.071C1278.13 496.944 1278.15 496.818 1278.2 496.7C1278.24 496.574 1278.31 496.459 1278.4 496.36C1278.49 496.262 1278.6 496.182 1278.72 496.126C1278.84 496.07 1278.98 496.039 1279.11 496.035C1279.24 496.03 1279.37 496.053 1279.5 496.1C1280.19 496.309 1280.8 496.713 1281.26 497.263C1281.72 497.814 1282.01 498.487 1282.1 499.2C1282.3 502.1 1278.6 505.4 1270.7 509.3C1255.5 516.9 1248.4 518.9 1244.9 518.9Z" fill="#966BD6"/>
<path d="M1257 453.7C1250.93 453.553 1244.94 452.193 1239.4 449.7C1235.38 447.954 1231.53 445.845 1227.9 443.4C1227.71 443.228 1227.58 442.993 1227.54 442.737C1227.51 442.481 1227.56 442.22 1227.7 442C1227.77 441.882 1227.86 441.782 1227.97 441.705C1228.09 441.629 1228.22 441.58 1228.35 441.56C1228.49 441.541 1228.62 441.553 1228.75 441.594C1228.88 441.636 1229 441.706 1229.1 441.8C1229.3 441.9 1247.3 455 1263.5 451C1263.63 450.937 1263.78 450.903 1263.92 450.903C1264.07 450.902 1264.22 450.933 1264.35 450.995C1264.48 451.057 1264.6 451.148 1264.7 451.261C1264.79 451.373 1264.86 451.506 1264.9 451.648C1264.93 451.79 1264.94 451.939 1264.91 452.084C1264.89 452.229 1264.83 452.366 1264.74 452.485C1264.66 452.605 1264.55 452.704 1264.42 452.776C1264.29 452.848 1264.15 452.89 1264 452.9C1261.71 453.462 1259.36 453.73 1257 453.7Z" fill="#292131"/>
<path d="M1343.9 1204.3C1343.9 1204.3 1383.7 1213.6 1465.4 1185.8L1473.6 1195C1512.3 1238.9 1493.3 1308.9 1437.3 1325.9L1435.1 1326.5L1432.7 1327.1C1372.3 1341.9 1319.2 1284 1337.6 1224.6L1343.9 1204.3Z" fill="#292131"/>
<path d="M1336.6 1194.6C1336.6 1194.6 1376.4 1203.9 1458.1 1176.1L1466.2 1185.3C1505 1229.3 1486 1299.3 1429.9 1316.2L1427.7 1316.9L1425.4 1317.5C1365 1332.2 1311.9 1274.4 1330.3 1215L1336.6 1194.6Z" fill="#FFE500"/>
<path d="M1459.5 1200.5C1459.33 1200.52 1459.15 1200.49 1459 1200.42C1458.84 1200.35 1458.7 1200.24 1458.6 1200.1C1434.6 1161.2 1416.6 1152 1405.2 1148.4C1405.07 1148.38 1404.94 1148.33 1404.83 1148.25C1404.72 1148.18 1404.63 1148.08 1404.57 1147.97C1404.5 1147.85 1404.46 1147.72 1404.45 1147.59C1404.44 1147.46 1404.45 1147.32 1404.5 1147.2C1404.59 1146.94 1404.77 1146.73 1405.01 1146.6C1405.25 1146.47 1405.53 1146.43 1405.8 1146.5C1417.5 1150.2 1436 1159.6 1460.3 1199C1460.42 1199.23 1460.46 1199.5 1460.41 1199.76C1460.35 1200.01 1460.21 1200.24 1460 1200.4L1459.5 1200.5Z" fill="#FFE500"/>
<path d="M1344.5 1229.4H1344.3C1344.17 1229.38 1344.04 1229.33 1343.93 1229.25C1343.82 1229.18 1343.72 1229.08 1343.64 1228.97C1343.57 1228.86 1343.52 1228.73 1343.49 1228.6C1343.47 1228.47 1343.47 1228.33 1343.5 1228.2C1343.6 1227.8 1352.4 1188.5 1369.8 1163.3C1369.87 1163.19 1369.96 1163.09 1370.07 1163.01C1370.18 1162.94 1370.31 1162.88 1370.44 1162.86C1370.57 1162.83 1370.7 1162.83 1370.83 1162.85C1370.96 1162.88 1371.09 1162.93 1371.2 1163C1371.31 1163.07 1371.41 1163.16 1371.49 1163.27C1371.56 1163.38 1371.62 1163.51 1371.64 1163.64C1371.67 1163.77 1371.67 1163.9 1371.65 1164.03C1371.62 1164.16 1371.57 1164.29 1371.5 1164.4C1354.2 1189.3 1345.5 1228.2 1345.5 1228.6C1345.44 1228.82 1345.31 1229.02 1345.13 1229.16C1344.95 1229.3 1344.73 1229.39 1344.5 1229.4Z" fill="#FFE500"/>
<path d="M1117.5 1748.5C1115.46 1748.5 1113.47 1747.9 1111.78 1746.76C1110.08 1745.63 1108.76 1744.02 1107.98 1742.14C1107.2 1740.26 1107 1738.19 1107.4 1736.19C1107.8 1734.19 1108.78 1732.36 1110.22 1730.92C1111.66 1729.48 1113.49 1728.5 1115.49 1728.1C1117.49 1727.7 1119.56 1727.9 1121.44 1728.68C1123.32 1729.46 1124.93 1730.78 1126.06 1732.48C1127.2 1734.17 1127.8 1736.16 1127.8 1738.2C1127.8 1740.93 1126.71 1743.55 1124.78 1745.48C1122.85 1747.42 1120.23 1748.5 1117.5 1748.5ZM1117.5 1730C1115.85 1730 1114.25 1730.49 1112.88 1731.41C1111.51 1732.32 1110.45 1733.63 1109.82 1735.15C1109.2 1736.67 1109.04 1738.34 1109.37 1739.96C1109.7 1741.57 1110.5 1743.05 1111.67 1744.2C1112.84 1745.36 1114.33 1746.14 1115.94 1746.45C1117.56 1746.76 1119.23 1746.58 1120.75 1745.94C1122.26 1745.3 1123.55 1744.22 1124.45 1742.84C1125.35 1741.46 1125.82 1739.85 1125.8 1738.2C1125.8 1737.11 1125.58 1736.04 1125.17 1735.04C1124.75 1734.04 1124.13 1733.13 1123.36 1732.37C1122.59 1731.6 1121.67 1731 1120.67 1730.6C1119.66 1730.19 1118.58 1729.99 1117.5 1730Z" fill="#292131"/>
<path d="M1588.4 1768.5C1586.58 1768.5 1584.8 1767.96 1583.29 1766.95C1581.78 1765.94 1580.6 1764.5 1579.9 1762.82C1579.2 1761.14 1579.02 1759.29 1579.38 1757.51C1579.73 1755.72 1580.61 1754.08 1581.89 1752.79C1583.18 1751.51 1584.82 1750.63 1586.6 1750.28C1588.39 1749.92 1590.24 1750.1 1591.92 1750.8C1593.6 1751.5 1595.04 1752.68 1596.05 1754.19C1597.06 1755.7 1597.6 1757.48 1597.6 1759.3C1597.57 1761.73 1596.6 1764.06 1594.88 1765.78C1593.16 1767.5 1590.83 1768.47 1588.4 1768.5ZM1588.4 1752.1C1586.98 1752.1 1585.58 1752.52 1584.4 1753.31C1583.22 1754.1 1582.29 1755.23 1581.75 1756.54C1581.2 1757.86 1581.06 1759.31 1581.34 1760.7C1581.62 1762.1 1582.3 1763.38 1583.31 1764.39C1584.32 1765.4 1585.6 1766.08 1587 1766.36C1588.39 1766.64 1589.84 1766.5 1591.15 1765.95C1592.47 1765.41 1593.6 1764.48 1594.39 1763.3C1595.18 1762.12 1595.6 1760.72 1595.6 1759.3C1595.57 1757.4 1594.81 1755.58 1593.46 1754.24C1592.12 1752.89 1590.3 1752.13 1588.4 1752.1Z" fill="#292131"/>
<path d="M1370.7 1278C1364.01 1278.02 1357.47 1276.05 1351.89 1272.35C1346.32 1268.65 1341.98 1263.38 1339.4 1257.2C1336.83 1251.03 1336.14 1244.23 1337.44 1237.67C1338.73 1231.1 1341.94 1225.07 1346.66 1220.34C1351.39 1215.6 1357.41 1212.37 1363.97 1211.06C1370.53 1209.74 1377.33 1210.41 1383.51 1212.96C1389.69 1215.52 1394.98 1219.85 1398.7 1225.41C1402.41 1230.97 1404.4 1237.51 1404.4 1244.2C1404.37 1253.14 1400.82 1261.71 1394.51 1268.04C1388.2 1274.37 1379.64 1277.95 1370.7 1278ZM1370.7 1212.5C1364.4 1212.48 1358.24 1214.33 1353 1217.82C1347.75 1221.3 1343.66 1226.27 1341.24 1232.08C1338.82 1237.9 1338.18 1244.3 1339.41 1250.48C1340.63 1256.66 1343.66 1262.33 1348.11 1266.79C1352.57 1271.24 1358.24 1274.27 1364.42 1275.49C1370.6 1276.72 1377 1276.08 1382.82 1273.66C1388.63 1271.24 1393.6 1267.15 1397.08 1261.9C1400.57 1256.66 1402.42 1250.5 1402.4 1244.2C1402.37 1235.8 1399.03 1227.75 1393.09 1221.81C1387.15 1215.87 1379.1 1212.53 1370.7 1212.5Z" fill="#7F44D6"/>
<path d="M1438.6 1266.6C1445.83 1266.6 1451.7 1260.74 1451.7 1253.5C1451.7 1246.27 1445.83 1240.4 1438.6 1240.4C1431.36 1240.4 1425.5 1246.27 1425.5 1253.5C1425.5 1260.74 1431.36 1266.6 1438.6 1266.6Z" fill="#7F44D6"/>
<path d="M1472.4 1231.4C1469.52 1231.42 1466.65 1230.98 1463.9 1230.1C1457.03 1227.82 1451.32 1222.94 1448 1216.5C1444.74 1210.05 1444.17 1202.57 1446.4 1195.7C1448.62 1188.83 1453.48 1183.11 1459.9 1179.8C1460.02 1179.73 1460.15 1179.69 1460.28 1179.67C1460.42 1179.65 1460.56 1179.66 1460.69 1179.7C1460.82 1179.74 1460.94 1179.8 1461.04 1179.89C1461.15 1179.97 1461.24 1180.08 1461.3 1180.2C1461.41 1180.45 1461.41 1180.74 1461.32 1181C1461.23 1181.26 1461.04 1181.47 1460.8 1181.6C1457.76 1183.06 1455.03 1185.12 1452.8 1187.65C1450.56 1190.19 1448.86 1193.14 1447.78 1196.34C1446.7 1199.54 1446.28 1202.93 1446.53 1206.3C1446.79 1209.67 1447.71 1212.95 1449.25 1215.96C1450.8 1218.96 1452.93 1221.63 1455.51 1223.8C1458.1 1225.97 1461.1 1227.59 1464.33 1228.59C1467.56 1229.58 1470.96 1229.91 1474.32 1229.57C1477.68 1229.23 1480.94 1228.22 1483.9 1226.6C1484.13 1226.51 1484.38 1226.5 1484.62 1226.58C1484.85 1226.65 1485.06 1226.8 1485.2 1227C1485.32 1227.24 1485.34 1227.52 1485.26 1227.78C1485.19 1228.03 1485.03 1228.26 1484.8 1228.4C1480.96 1230.37 1476.71 1231.39 1472.4 1231.4Z" fill="#7F44D6"/>
<path d="M1401.9 1319.6C1401.68 1319.6 1401.47 1319.53 1401.29 1319.4C1401.12 1319.28 1400.98 1319.1 1400.9 1318.9C1400.16 1315.85 1400.02 1312.68 1400.51 1309.57C1400.99 1306.47 1402.08 1303.49 1403.71 1300.81C1405.35 1298.12 1407.5 1295.79 1410.03 1293.93C1412.57 1292.08 1415.45 1290.74 1418.5 1290C1421.55 1289.26 1424.72 1289.12 1427.83 1289.61C1430.93 1290.09 1433.91 1291.18 1436.59 1292.81C1439.28 1294.45 1441.61 1296.6 1443.47 1299.13C1445.32 1301.67 1446.66 1304.55 1447.4 1307.6C1447.43 1307.73 1447.43 1307.87 1447.41 1308C1447.38 1308.13 1447.33 1308.26 1447.26 1308.37C1447.18 1308.48 1447.08 1308.58 1446.97 1308.65C1446.86 1308.73 1446.73 1308.78 1446.6 1308.8C1446.35 1308.86 1446.08 1308.82 1445.86 1308.69C1445.63 1308.56 1445.47 1308.35 1445.4 1308.1C1444.86 1305.17 1443.73 1302.38 1442.08 1299.9C1440.43 1297.42 1438.28 1295.3 1435.78 1293.68C1433.28 1292.06 1430.48 1290.96 1427.54 1290.46C1424.61 1289.96 1421.6 1290.06 1418.7 1290.77C1415.8 1291.47 1413.08 1292.75 1410.7 1294.54C1408.32 1296.33 1406.33 1298.59 1404.85 1301.18C1403.37 1303.77 1402.43 1306.63 1402.1 1309.59C1401.76 1312.55 1402.04 1315.55 1402.9 1318.4C1402.93 1318.53 1402.93 1318.67 1402.91 1318.8C1402.88 1318.93 1402.83 1319.06 1402.76 1319.17C1402.68 1319.28 1402.58 1319.38 1402.47 1319.45C1402.36 1319.53 1402.23 1319.58 1402.1 1319.6H1401.9Z" fill="#7F44D6"/>
<path d="M1403.6 1202.8C1405.86 1202.8 1407.7 1200.96 1407.7 1198.7C1407.7 1196.44 1405.86 1194.6 1403.6 1194.6C1401.34 1194.6 1399.5 1196.44 1399.5 1198.7C1399.5 1200.96 1401.34 1202.8 1403.6 1202.8Z" fill="#7F44D6"/>
<path d="M1227 625.7L1235.5 588.6L1221.4 626.9L1227 625.7Z" fill="#292131"/>
<path d="M1298.6 646.3C1298.38 646.302 1298.16 646.221 1298 646.073C1297.83 645.925 1297.72 645.721 1297.7 645.5C1289.4 612.2 1283 567.9 1299.2 546.6C1306.5 536.9 1315 536.5 1315.3 536.5C1315.58 536.499 1315.84 536.601 1316.04 536.786C1316.25 536.971 1316.37 537.226 1316.4 537.5C1316.38 537.758 1316.26 537.999 1316.08 538.182C1315.9 538.365 1315.66 538.478 1315.4 538.5C1315.3 538.5 1307.4 539 1300.7 547.8C1292.1 559.3 1284.9 585.5 1299.6 645C1299.66 645.252 1299.62 645.518 1299.49 645.742C1299.36 645.965 1299.15 646.13 1298.9 646.2L1298.6 646.3Z" fill="#292131"/>
<path d="M1242.6 642.8H1242.5C1242.37 642.788 1242.24 642.749 1242.12 642.687C1242.01 642.625 1241.9 642.54 1241.82 642.438C1241.74 642.336 1241.67 642.218 1241.64 642.091C1241.6 641.965 1241.59 641.832 1241.6 641.7L1252.5 530.6C1252.51 530.469 1252.55 530.341 1252.61 530.224C1252.68 530.108 1252.76 530.004 1252.86 529.921C1252.96 529.837 1253.08 529.775 1253.21 529.737C1253.34 529.699 1253.47 529.686 1253.6 529.7C1253.85 529.764 1254.07 529.905 1254.23 530.103C1254.39 530.3 1254.49 530.545 1254.5 530.8L1243.6 641.9C1243.56 642.14 1243.43 642.358 1243.25 642.521C1243.07 642.684 1242.84 642.782 1242.6 642.8Z" fill="#292131"/>
<path d="M1262.8 571.3L1254 570.4C1253.88 570.404 1253.77 570.379 1253.66 570.327C1253.56 570.274 1253.47 570.196 1253.4 570.1C1253.3 569.994 1253.22 569.868 1253.17 569.731C1253.12 569.593 1253.09 569.447 1253.1 569.3L1254 560.6C1253.99 560.47 1254.03 560.342 1254.1 560.233C1254.17 560.125 1254.28 560.043 1254.4 560C1254.49 559.902 1254.6 559.824 1254.72 559.773C1254.84 559.721 1254.97 559.696 1255.1 559.7L1263.8 560.6C1263.93 560.613 1264.06 560.651 1264.18 560.713C1264.29 560.776 1264.4 560.86 1264.48 560.962C1264.56 561.065 1264.63 561.183 1264.66 561.309C1264.7 561.436 1264.71 561.569 1264.7 561.7L1263.8 570.4C1263.8 570.527 1263.77 570.653 1263.72 570.769C1263.67 570.886 1263.6 570.99 1263.5 571.075C1263.41 571.16 1263.3 571.224 1263.17 571.263C1263.05 571.301 1262.93 571.314 1262.8 571.3ZM1255.2 568.5L1261.9 569.2L1262.6 562.5L1255.9 561.8L1255.2 568.5Z" fill="#292131"/>
<path d="M1261.2 590.5H1261.1L1252.4 589.6C1252.26 589.604 1252.13 589.576 1252 589.519C1251.88 589.461 1251.77 589.378 1251.68 589.271C1251.59 589.165 1251.53 589.041 1251.5 588.907C1251.47 588.774 1251.47 588.634 1251.5 588.5L1252.3 579.8C1252.35 579.544 1252.48 579.314 1252.68 579.149C1252.89 578.984 1253.14 578.897 1253.4 578.901L1262.1 579.8C1262.23 579.796 1262.36 579.821 1262.48 579.873C1262.6 579.924 1262.71 580.002 1262.8 580.1C1262.97 580.331 1263.04 580.619 1263 580.901L1262.2 589.6C1262.1 589.8 1262 590.101 1261.8 590.201C1261.65 590.375 1261.43 590.481 1261.2 590.5ZM1253.5 587.701L1260.3 588.401L1260.9 581.701L1254.2 581L1253.5 587.701Z" fill="#292131"/>
<path d="M1259.4 609.7H1259.3L1250.6 608.8C1250.47 608.808 1250.34 608.773 1250.23 608.7C1250.12 608.628 1250.04 608.523 1250 608.4C1249.9 608.313 1249.82 608.204 1249.77 608.084C1249.72 607.963 1249.7 607.832 1249.7 607.7L1250.6 599C1250.61 598.869 1250.65 598.741 1250.71 598.624C1250.78 598.508 1250.86 598.404 1250.96 598.321C1251.06 598.237 1251.18 598.174 1251.31 598.137C1251.44 598.099 1251.57 598.086 1251.7 598.1L1260.4 599C1260.53 598.996 1260.66 599.021 1260.78 599.073C1260.9 599.124 1261.01 599.202 1261.1 599.3C1261.22 599.549 1261.29 599.822 1261.3 600.1L1260.4 608.8C1260.4 608.927 1260.37 609.053 1260.32 609.169C1260.27 609.286 1260.2 609.39 1260.1 609.475C1260.01 609.56 1259.9 609.624 1259.77 609.663C1259.65 609.702 1259.53 609.714 1259.4 609.7ZM1251.8 606.9L1258.5 607.6L1259.2 600.9L1252.5 600.2L1251.8 606.9Z" fill="#292131"/>
<path d="M1034 654.2C1033.87 654.204 1033.74 654.18 1033.62 654.128C1033.5 654.076 1033.39 653.998 1033.3 653.9C1024.5 644.2 1007.4 644.3 1007.2 644.3C1006.93 644.3 1006.68 644.195 1006.49 644.007C1006.31 643.82 1006.2 643.565 1006.2 643.3C1006.2 643.035 1006.31 642.781 1006.49 642.593C1006.68 642.406 1006.93 642.3 1007.2 642.3C1007.9 642.3 1025.4 642.1 1034.8 652.5C1034.96 652.724 1035.03 652.995 1035.01 653.268C1035 653.541 1034.88 653.799 1034.7 654L1034 654.2Z" fill="#292131"/>
<path d="M1355.6 823.3C1355.39 823.304 1355.19 823.25 1355.01 823.144C1354.84 823.038 1354.69 822.884 1354.6 822.7C1354.1 821.382 1353.87 819.978 1353.92 818.57C1353.98 817.162 1354.31 815.779 1354.9 814.5C1359.2 805.3 1375.4 799.8 1376 799.5C1376.26 799.435 1376.54 799.47 1376.78 799.6C1377.02 799.729 1377.21 799.943 1377.3 800.2C1377.35 800.318 1377.37 800.444 1377.36 800.571C1377.36 800.697 1377.32 800.821 1377.27 800.934C1377.21 801.048 1377.13 801.148 1377.03 801.228C1376.94 801.308 1376.82 801.367 1376.7 801.4C1376.5 801.5 1360.6 806.9 1356.7 815.3C1356.2 816.323 1355.92 817.44 1355.89 818.579C1355.85 819.717 1356.06 820.849 1356.5 821.9C1356.55 822.025 1356.57 822.158 1356.57 822.291C1356.56 822.424 1356.53 822.556 1356.47 822.677C1356.42 822.798 1356.34 822.907 1356.24 822.997C1356.14 823.086 1356.03 823.156 1355.9 823.2L1355.6 823.3Z" fill="#292131"/>
<path d="M1391.7 414.5C1391.58 414.525 1391.45 414.519 1391.33 414.484C1391.2 414.45 1391.09 414.387 1391 414.3C1370.3 397.7 1351.6 391.6 1339.6 389.4C1327.6 387.2 1318.5 388.5 1318.4 388.5C1318.27 388.529 1318.14 388.531 1318.02 388.505C1317.89 388.48 1317.77 388.427 1317.67 388.351C1317.56 388.275 1317.48 388.178 1317.41 388.066C1317.35 387.953 1317.31 387.829 1317.3 387.7C1317.27 387.582 1317.27 387.459 1317.28 387.338C1317.3 387.218 1317.35 387.103 1317.41 387C1317.48 386.897 1317.56 386.809 1317.67 386.74C1317.77 386.671 1317.88 386.624 1318 386.6C1318.4 386.5 1351.7 380.4 1392.3 412.8C1392.5 412.974 1392.62 413.218 1392.64 413.48C1392.66 413.742 1392.57 414 1392.4 414.2C1392.32 414.304 1392.21 414.386 1392.09 414.439C1391.97 414.491 1391.83 414.512 1391.7 414.5Z" fill="#292131"/>
<path d="M1364.8 488.4H1364.6C1355.3 488.3 1345.6 478.5 1342.4 466.2C1338 449 1337.6 414.9 1337.6 414.6V412.4L1339.3 413.8C1341.1 415.4 1385 453.3 1378.5 475.6C1375.3 486.7 1368.6 488.4 1364.8 488.4ZM1339.7 416.8C1339.8 424.7 1340.7 451.3 1344.3 465.7C1347.3 477.2 1356.2 486.3 1364.6 486.4C1370.2 486.5 1374.4 482.5 1376.6 475.1C1382.1 456.4 1347.8 424.1 1339.7 416.8Z" fill="#292131"/>
<path d="M1136.9 1205.5H1136.7C1136.57 1205.48 1136.44 1205.43 1136.33 1205.35C1136.22 1205.28 1136.12 1205.18 1136.04 1205.07C1135.97 1204.96 1135.92 1204.83 1135.89 1204.7C1135.87 1204.57 1135.87 1204.43 1135.9 1204.3L1143 1173C1143.07 1172.74 1143.23 1172.52 1143.45 1172.38C1143.67 1172.23 1143.94 1172.17 1144.2 1172.2C1144.45 1172.27 1144.66 1172.44 1144.79 1172.66C1144.92 1172.88 1144.96 1173.15 1144.9 1173.4L1137.9 1204.8C1137.81 1205 1137.67 1205.16 1137.5 1205.29C1137.32 1205.41 1137.11 1205.48 1136.9 1205.5Z" fill="#292131"/>
<path d="M1333.9 1446.3C1333.66 1446.28 1333.43 1446.18 1333.25 1446.02C1333.06 1445.86 1332.94 1445.64 1332.9 1445.4L1325.6 1340.7C1325.59 1340.57 1325.6 1340.45 1325.64 1340.33C1325.68 1340.2 1325.74 1340.09 1325.82 1340C1325.91 1339.9 1326.01 1339.83 1326.13 1339.78C1326.25 1339.73 1326.37 1339.7 1326.5 1339.7C1326.63 1339.67 1326.77 1339.67 1326.91 1339.7C1327.04 1339.73 1327.16 1339.79 1327.27 1339.88C1327.38 1339.97 1327.46 1340.08 1327.52 1340.2C1327.57 1340.33 1327.6 1340.46 1327.6 1340.6L1334.9 1445.2C1334.91 1445.33 1334.9 1445.46 1334.86 1445.59C1334.83 1445.72 1334.76 1445.84 1334.68 1445.94C1334.6 1446.04 1334.49 1446.12 1334.38 1446.19C1334.26 1446.25 1334.13 1446.29 1334 1446.3H1333.9Z" fill="#292131"/>
<path d="M1337.7 1485.8C1337.45 1485.8 1337.21 1485.71 1337.03 1485.54C1336.84 1485.38 1336.72 1485.15 1336.7 1484.9L1334.8 1465.5C1334.79 1465.37 1334.8 1465.25 1334.84 1465.13C1334.88 1465 1334.94 1464.89 1335.02 1464.8C1335.11 1464.7 1335.21 1464.63 1335.33 1464.58C1335.45 1464.53 1335.57 1464.5 1335.7 1464.5C1335.95 1464.47 1336.2 1464.54 1336.41 1464.68C1336.61 1464.83 1336.75 1465.05 1336.8 1465.3L1338.7 1484.7C1338.69 1484.96 1338.59 1485.2 1338.43 1485.4C1338.27 1485.6 1338.05 1485.74 1337.8 1485.8H1337.7Z" fill="#292131"/>
<path d="M1146.7 1160.9H1146.5C1146.24 1160.83 1146.02 1160.67 1145.88 1160.45C1145.73 1160.23 1145.67 1159.96 1145.7 1159.7L1186.1 965.2C1186.12 965.069 1186.17 964.944 1186.25 964.835C1186.32 964.725 1186.42 964.634 1186.53 964.567C1186.65 964.5 1186.78 964.46 1186.91 964.448C1187.04 964.436 1187.18 964.454 1187.3 964.5C1187.42 964.524 1187.53 964.571 1187.63 964.64C1187.73 964.709 1187.82 964.797 1187.89 964.9C1187.95 965.003 1187.99 965.118 1188.01 965.238C1188.03 965.359 1188.03 965.482 1188 965.6L1147.7 1160.1C1147.64 1160.32 1147.51 1160.52 1147.33 1160.66C1147.15 1160.8 1146.93 1160.89 1146.7 1160.9Z" fill="#292131"/>
<path d="M1281.3 728.7C1281.05 728.701 1280.81 728.61 1280.63 728.444C1280.44 728.277 1280.32 728.048 1280.3 727.8L1276.5 695.5C1276.47 695.375 1276.47 695.244 1276.49 695.118C1276.52 694.991 1276.57 694.872 1276.65 694.768C1276.72 694.663 1276.82 694.576 1276.93 694.513C1277.05 694.45 1277.17 694.411 1277.3 694.4C1277.43 694.371 1277.57 694.369 1277.7 694.394C1277.83 694.419 1277.96 694.47 1278.07 694.545C1278.18 694.619 1278.28 694.716 1278.35 694.829C1278.43 694.941 1278.48 695.068 1278.5 695.2L1282.3 727.6C1282.29 727.856 1282.19 728.1 1282.03 728.298C1281.87 728.496 1281.65 728.637 1281.4 728.7H1281.3Z" fill="#292131"/>
<path d="M1237.1 703.1H1237C1236.87 703.076 1236.74 703.026 1236.63 702.952C1236.52 702.879 1236.42 702.783 1236.34 702.671C1236.27 702.559 1236.22 702.433 1236.19 702.3C1236.17 702.168 1236.17 702.032 1236.2 701.9L1238.6 689.3C1238.7 689.099 1238.86 688.936 1239.06 688.837C1239.26 688.739 1239.49 688.71 1239.71 688.756C1239.93 688.802 1240.12 688.92 1240.27 689.091C1240.41 689.263 1240.49 689.477 1240.5 689.7L1238.1 702.3C1238.04 702.521 1237.91 702.717 1237.73 702.861C1237.55 703.004 1237.33 703.088 1237.1 703.1Z" fill="#292131"/>
<path d="M1235.1 457.5C1234.84 457.487 1234.59 457.38 1234.4 457.2C1230.7 453.7 1225.5 457.2 1225.3 457.3C1225.19 457.374 1225.06 457.425 1224.93 457.45C1224.8 457.475 1224.67 457.473 1224.54 457.445C1224.41 457.417 1224.28 457.364 1224.17 457.287C1224.06 457.211 1223.97 457.113 1223.9 457C1223.83 456.897 1223.78 456.78 1223.75 456.657C1223.73 456.533 1223.73 456.406 1223.76 456.284C1223.79 456.161 1223.84 456.046 1223.92 455.946C1223.99 455.845 1224.09 455.761 1224.2 455.7C1226.5 454.1 1231.9 452.1 1235.8 455.7C1235.99 455.904 1236.09 456.172 1236.09 456.45C1236.09 456.729 1235.99 456.997 1235.8 457.2C1235.71 457.298 1235.6 457.376 1235.48 457.428C1235.36 457.48 1235.23 457.504 1235.1 457.5Z" fill="#292131"/>
</svg>
