<?xml version="1.0" standalone="no"?>
<!DOCTYPE svg PUBLIC "-//W3C//DTD SVG 20010904//EN"
 "http://www.w3.org/TR/2001/REC-SVG-20010904/DTD/svg10.dtd">
<svg version="1.0" xmlns="http://www.w3.org/2000/svg"
 width="273.000000pt" height="281.000000pt" viewBox="0 0 273.000000 281.000000"
 preserveAspectRatio="xMidYMid meet">

<g transform="translate(0.000000,281.000000) scale(0.100000,-0.100000)"
fill="white" stroke="none">
<path d="M453 2473 c-13 -2 -32 -16 -43 -30 -19 -25 -20 -39 -20 -519 l0 -494
60 0 60 0 0 460 0 460 830 0 830 0 0 -459 c0 -517 -8 -469 81 -463 l49 4 0
477 c0 331 -3 488 -11 511 -22 62 11 60 -946 59 -477 -1 -878 -4 -890 -6z"/>
<path d="M1604 2246 c-28 -12 -53 -37 -79 -80 -10 -17 0 -15 -455 -71 -118
-14 -220 -32 -227 -38 -16 -16 21 -367 39 -379 7 -4 129 -8 270 -8 l258 0 20
-40 c11 -23 18 -45 15 -50 -4 -6 -116 -10 -285 -10 l-278 0 -27 -31 c-28 -34
-28 -47 -2 -63 12 -8 22 -5 40 12 13 12 35 22 50 22 33 0 33 -3 2 -34 -32 -32
-32 -70 0 -101 31 -32 74 -33 103 -2 30 32 29 78 -4 111 l-27 26 164 0 163 0
-27 -28 c-72 -75 25 -181 98 -107 32 31 32 69 0 101 -14 14 -25 26 -25 28 0 2
19 6 42 9 45 6 78 35 78 67 0 10 -11 42 -24 72 l-24 54 63 220 c34 120 66 227
70 236 3 9 24 24 46 32 32 13 40 21 37 39 -4 27 -31 32 -74 13z m-109 -194
c-6 -27 -10 -30 -61 -36 -66 -8 -73 -4 -67 28 4 21 12 26 52 31 25 4 53 7 61
9 21 3 23 1 15 -32z m-165 -16 c0 -29 -16 -36 -81 -36 -43 0 -49 3 -49 20 0
25 30 39 88 39 38 1 42 -1 42 -23z m-160 -16 c0 -24 -6 -26 -77 -35 -51 -5
-53 -5 -53 19 0 28 13 33 83 35 41 1 47 -2 47 -19z m-174 -37 c-3 -3 -25 -8
-51 -10 -41 -5 -45 -4 -45 16 0 21 13 27 70 33 18 2 26 -2 28 -15 2 -10 1 -21
-2 -24z m470 -38 c-6 -23 -11 -25 -62 -25 -54 0 -55 0 -52 28 3 25 7 27 58 32
60 5 65 2 56 -35z m-146 18 c0 -5 -3 -18 -6 -30 -6 -21 -13 -23 -65 -23 -41 0
-59 4 -59 13 0 19 13 34 35 40 32 8 95 8 95 0z m-162 -31 c-3 -25 -6 -27 -60
-30 -56 -3 -58 -2 -58 22 0 22 5 25 43 28 23 2 50 4 60 5 14 1 18 -4 15 -25z
m-158 -17 c0 -23 -4 -25 -45 -25 -37 0 -45 3 -45 18 0 27 9 32 52 32 34 0 38
-3 38 -25z m443 -31 c3 -3 1 -19 -5 -35 -9 -27 -14 -29 -59 -29 -40 0 -49 3
-49 18 0 29 14 40 55 45 22 2 43 4 46 5 3 1 8 -1 12 -4z m-145 -31 c-3 -26 -7
-28 -55 -31 -51 -3 -53 -2 -53 22 0 20 6 25 33 29 77 9 79 9 75 -20z m-150
-10 c-3 -26 -7 -28 -55 -31 -51 -3 -53 -2 -53 22 0 25 13 31 83 35 25 1 28 -2
25 -26z m-143 -8 c0 -16 -8 -21 -41 -23 -34 -3 -42 0 -47 17 -6 24 6 31 53 28
28 -2 35 -6 35 -22z m415 -56 c0 -31 -22 -49 -60 -49 -45 0 -51 6 -39 38 7 18
16 22 54 22 25 0 45 -5 45 -11z m-412 -26 c3 -21 -1 -23 -37 -23 -42 0 -57 11
-47 36 4 11 17 14 43 12 31 -2 39 -7 41 -25z m132 1 c0 -24 -2 -25 -47 -22
-41 3 -48 6 -51 26 -3 20 0 22 47 22 48 0 51 -2 51 -26z m140 1 c0 -23 -3 -25
-50 -25 -47 0 -50 2 -50 25 0 23 3 25 50 25 47 0 50 -2 50 -25z m-265 -325
c12 10 15 10 15 -2 0 -15 -19 -38 -31 -38 -4 0 -15 7 -23 16 -20 19 -11 40 10
23 11 -9 17 -9 29 1z m359 -1 c21 17 30 -4 10 -23 -8 -9 -19 -16 -23 -16 -12
0 -31 23 -31 38 0 12 3 12 15 2 12 -10 18 -10 29 -1z"/>
<path d="M1604 1813 c3 -10 19 -69 35 -132 17 -62 33 -116 36 -119 3 -3 18 7
33 21 16 15 32 27 36 27 5 0 24 -17 42 -37 l33 -38 37 37 38 38 -39 40 -39 40
29 30 c17 18 25 34 19 39 -9 8 -235 71 -255 71 -6 0 -8 -8 -5 -17z"/>
<path d="M364 1233 c-6 -10 -30 -53 -53 -95 l-42 -78 369 0 370 0 22 35 22 35
292 0 292 0 17 -35 17 -35 370 0 c203 0 370 3 370 8 0 4 -22 45 -49 92 l-49
85 -968 3 c-915 2 -970 1 -980 -15z"/>
<path d="M590 750 l0 -100 96 0 c93 0 95 1 92 23 -3 20 -9 22 -70 25 -82 4
-91 22 -12 22 52 0 55 1 52 23 -3 19 -10 22 -55 25 -38 2 -53 7 -53 18 0 11
16 14 71 14 67 0 70 1 67 23 -3 21 -8 22 -95 25 l-93 3 0 -101z"/>
<path d="M1085 843 c-50 -12 -72 -66 -39 -94 9 -8 39 -16 67 -19 29 -3 52 -11
55 -18 3 -11 -11 -13 -67 -10 -72 3 -72 3 -69 -22 3 -24 7 -25 72 -28 86 -4
116 12 116 63 0 41 -18 53 -90 62 -29 3 -47 10 -43 16 3 6 30 7 64 3 57 -5 59
-5 59 18 0 19 -7 24 -37 30 -41 6 -58 6 -88 -1z"/>
<path d="M1300 750 c0 -99 0 -100 24 -100 21 0 25 6 28 33 3 31 4 32 53 32 49
0 50 -1 53 -32 3 -27 7 -33 28 -33 24 0 24 1 24 100 l0 100 -25 0 c-22 0 -25
-4 -25 -40 l0 -40 -55 0 -55 0 0 40 c0 36 -2 40 -25 40 l-25 0 0 -100z"/>
<path d="M1643 835 c-39 -17 -53 -42 -53 -95 0 -31 6 -47 26 -67 23 -23 31
-25 96 -21 84 5 108 25 108 90 0 52 -14 77 -55 94 -43 17 -81 17 -122 -1z
m118 -57 c12 -19 11 -52 -3 -66 -7 -7 -30 -12 -53 -12 -23 0 -46 5 -53 12 -18
18 -15 65 6 78 22 13 92 6 103 -12z"/>
<path d="M1933 843 l-33 -4 0 -95 c0 -94 0 -94 25 -94 20 0 25 5 25 25 0 24 3
25 58 25 44 0 63 5 75 18 24 26 22 85 -3 107 -20 18 -87 27 -147 18z m101 -49
c9 -3 16 -15 16 -25 0 -16 -8 -19 -50 -19 -42 0 -50 3 -50 18 0 10 3 22 7 25
8 9 56 9 77 1z"/>
<path d="M850 741 c0 -18 6 -21 51 -21 43 0 50 3 47 18 -2 13 -15 18 -51 20
-42 3 -47 1 -47 -17z"/>
<path d="M957 464 c-4 -4 -4 -11 -1 -15 3 -5 180 -9 395 -9 339 0 389 2 389
15 0 13 -50 15 -388 15 -214 0 -392 -3 -395 -6z"/>
</g>
</svg>
